<svg width="20" height="20" viewBox="0 0 20 20" fill="none" xmlns="http://www.w3.org/2000/svg">
<path fill-rule="evenodd" clip-rule="evenodd" d="M7.29279 14.707C7.10532 14.5195 7 14.2651 7 14C7 13.7348 7.10532 13.4805 7.29279 13.293L10.5858 9.99998L7.29279 6.70698C7.11063 6.51838 7.00983 6.26578 7.01211 6.00358C7.01439 5.74138 7.11956 5.49057 7.30497 5.30516C7.49038 5.11975 7.74119 5.01458 8.00339 5.01231C8.26558 5.01003 8.51818 5.11082 8.70679 5.29298L12.7068 9.29298C12.8943 9.48051 12.9996 9.73482 12.9996 9.99998C12.9996 10.2651 12.8943 10.5195 12.7068 10.707L8.70679 14.707C8.51926 14.8945 8.26495 14.9998 7.99979 14.9998C7.73462 14.9998 7.48031 14.8945 7.29279 14.707Z" fill="black"/>
</svg>
