<svg width="36" height="36" viewBox="0 0 36 36" fill="none" xmlns="http://www.w3.org/2000/svg">
<path fill-rule="evenodd" clip-rule="evenodd" d="M13.1276 26.4726C12.7902 26.135 12.6006 25.6773 12.6006 25.2C12.6006 24.7227 12.7902 24.2649 13.1276 23.9274L19.055 18L13.1276 12.0726C12.7997 11.7331 12.6183 11.2784 12.6224 10.8065C12.6265 10.3345 12.8158 9.88304 13.1495 9.5493C13.4833 9.21557 13.9347 9.02626 14.4067 9.02216C14.8786 9.01806 15.3333 9.19949 15.6728 9.52738L22.8728 16.7274C23.2102 17.0649 23.3998 17.5227 23.3998 18C23.3998 18.4773 23.2102 18.935 22.8728 19.2726L15.6728 26.4726C15.3353 26.81 14.8775 26.9996 14.4002 26.9996C13.9229 26.9996 13.4652 26.81 13.1276 26.4726Z" fill="black"/>
</svg>
