<svg width="36" height="36" viewBox="0 0 36 36" fill="none" xmlns="http://www.w3.org/2000/svg">
<path fill-rule="evenodd" clip-rule="evenodd" d="M13.1274 26.4726C12.79 26.135 12.6004 25.6773 12.6004 25.2C12.6004 24.7227 12.79 24.2649 13.1274 23.9274L19.0548 18L13.1274 12.0726C12.7995 11.7331 12.6181 11.2784 12.6222 10.8065C12.6263 10.3345 12.8156 9.88304 13.1493 9.5493C13.4831 9.21557 13.9345 9.02626 14.4065 9.02216C14.8785 9.01806 15.3331 9.19949 15.6726 9.52738L22.8726 16.7274C23.2101 17.0649 23.3996 17.5227 23.3996 18C23.3996 18.4773 23.2101 18.935 22.8726 19.2726L15.6726 26.4726C15.3351 26.81 14.8773 26.9996 14.4 26.9996C13.9227 26.9996 13.465 26.81 13.1274 26.4726Z" fill="black"/>
</svg>
