<svg width="17" height="16" viewBox="0 0 17 16" fill="none" xmlns="http://www.w3.org/2000/svg">
<path fill-rule="evenodd" clip-rule="evenodd" d="M8.66672 14.4C10.3641 14.4 11.992 13.7257 13.1922 12.5255C14.3924 11.3252 15.0667 9.69736 15.0667 7.99998C15.0667 6.30259 14.3924 4.67473 13.1922 3.47449C11.992 2.27426 10.3641 1.59998 8.66672 1.59998C6.96934 1.59998 5.34147 2.27426 4.14124 3.47449C2.94101 4.67473 2.26672 6.30259 2.26672 7.99998C2.26672 9.69736 2.94101 11.3252 4.14124 12.5255C5.34147 13.7257 6.96934 14.4 8.66672 14.4ZM9.46672 4.79998C9.46672 4.5878 9.38244 4.38432 9.23241 4.23429C9.08238 4.08426 8.8789 3.99998 8.66672 3.99998C8.45455 3.99998 8.25107 4.08426 8.10104 4.23429C7.95101 4.38432 7.86672 4.5878 7.86672 4.79998V7.99998C7.86677 8.21213 7.95108 8.41558 8.10112 8.56558L10.3635 10.8288C10.4379 10.9031 10.5261 10.9621 10.6232 11.0023C10.7203 11.0425 10.8244 11.0632 10.9295 11.0632C11.0346 11.0632 11.1387 11.0425 11.2358 11.0023C11.333 10.9621 11.4212 10.9031 11.4955 10.8288C11.5699 10.7544 11.6288 10.6662 11.669 10.5691C11.7093 10.472 11.73 10.3679 11.73 10.2628C11.73 10.1577 11.7093 10.0536 11.669 9.95646C11.6288 9.85934 11.5699 9.7711 11.4955 9.69678L9.46672 7.66878V4.79998Z" fill="#6B7280"/>
</svg>
