<svg width="17" height="16" viewBox="0 0 17 16" fill="none" xmlns="http://www.w3.org/2000/svg">
<path fill-rule="evenodd" clip-rule="evenodd" d="M8.66685 14.4C10.3642 14.4 11.9921 13.7257 13.1923 12.5255C14.3926 11.3252 15.0668 9.69736 15.0668 7.99998C15.0668 6.30259 14.3926 4.67473 13.1923 3.47449C11.9921 2.27426 10.3642 1.59998 8.66685 1.59998C6.96946 1.59998 5.3416 2.27426 4.14136 3.47449C2.94113 4.67473 2.26685 6.30259 2.26685 7.99998C2.26685 9.69736 2.94113 11.3252 4.14136 12.5255C5.3416 13.7257 6.96946 14.4 8.66685 14.4ZM9.46685 4.79998C9.46685 4.5878 9.38256 4.38432 9.23253 4.23429C9.0825 4.08426 8.87902 3.99998 8.66685 3.99998C8.45467 3.99998 8.25119 4.08426 8.10116 4.23429C7.95113 4.38432 7.86685 4.5878 7.86685 4.79998V7.99998C7.86689 8.21213 7.95121 8.41558 8.10125 8.56558L10.3636 10.8288C10.438 10.9031 10.5262 10.9621 10.6233 11.0023C10.7204 11.0425 10.8245 11.0632 10.9296 11.0632C11.0348 11.0632 11.1388 11.0425 11.236 11.0023C11.3331 10.9621 11.4213 10.9031 11.4956 10.8288C11.57 10.7544 11.6289 10.6662 11.6692 10.5691C11.7094 10.472 11.7301 10.3679 11.7301 10.2628C11.7301 10.1577 11.7094 10.0536 11.6692 9.95646C11.6289 9.85934 11.57 9.7711 11.4956 9.69678L9.46685 7.66878V4.79998Z" fill="#6B7280"/>
</svg>
