<svg width="17" height="16" viewBox="0 0 17 16" fill="none" xmlns="http://www.w3.org/2000/svg">
<path fill-rule="evenodd" clip-rule="evenodd" d="M8.6666 14.4C10.364 14.4 11.9919 13.7257 13.1921 12.5255C14.3923 11.3252 15.0666 9.69736 15.0666 7.99998C15.0666 6.30259 14.3923 4.67473 13.1921 3.47449C11.9919 2.27426 10.364 1.59998 8.6666 1.59998C6.96922 1.59998 5.34135 2.27426 4.14112 3.47449C2.94089 4.67473 2.2666 6.30259 2.2666 7.99998C2.2666 9.69736 2.94089 11.3252 4.14112 12.5255C5.34135 13.7257 6.96922 14.4 8.6666 14.4ZM9.4666 4.79998C9.4666 4.5878 9.38232 4.38432 9.23229 4.23429C9.08226 4.08426 8.87877 3.99998 8.6666 3.99998C8.45443 3.99998 8.25095 4.08426 8.10092 4.23429C7.95089 4.38432 7.8666 4.5878 7.8666 4.79998V7.99998C7.86665 8.21213 7.95096 8.41558 8.101 8.56558L10.3634 10.8288C10.4377 10.9031 10.526 10.9621 10.6231 11.0023C10.7202 11.0425 10.8243 11.0632 10.9294 11.0632C11.0345 11.0632 11.1386 11.0425 11.2357 11.0023C11.3328 10.9621 11.4211 10.9031 11.4954 10.8288C11.5697 10.7544 11.6287 10.6662 11.6689 10.5691C11.7091 10.472 11.7298 10.3679 11.7298 10.2628C11.7298 10.1577 11.7091 10.0536 11.6689 9.95646C11.6287 9.85934 11.5697 9.7711 11.4954 9.69678L9.4666 7.66878V4.79998Z" fill="#6B7280"/>
</svg>
