<svg width="17" height="16" viewBox="0 0 17 16" fill="none" xmlns="http://www.w3.org/2000/svg">
<path fill-rule="evenodd" clip-rule="evenodd" d="M8.33335 14.4C10.0307 14.4 11.6586 13.7257 12.8588 12.5255C14.0591 11.3252 14.7333 9.69736 14.7333 7.99998C14.7333 6.30259 14.0591 4.67473 12.8588 3.47449C11.6586 2.27426 10.0307 1.59998 8.33335 1.59998C6.63596 1.59998 5.0081 2.27426 3.80787 3.47449C2.60763 4.67473 1.93335 6.30259 1.93335 7.99998C1.93335 9.69736 2.60763 11.3252 3.80787 12.5255C5.0081 13.7257 6.63596 14.4 8.33335 14.4ZM9.13335 4.79998C9.13335 4.5878 9.04906 4.38432 8.89903 4.23429C8.74901 4.08426 8.54552 3.99998 8.33335 3.99998C8.12118 3.99998 7.91769 4.08426 7.76766 4.23429C7.61764 4.38432 7.53335 4.5878 7.53335 4.79998V7.99998C7.5334 8.21213 7.61771 8.41558 7.76775 8.56558L10.0301 10.8288C10.1045 10.9031 10.1927 10.9621 10.2898 11.0023C10.3869 11.0425 10.491 11.0632 10.5961 11.0632C10.7013 11.0632 10.8054 11.0425 10.9025 11.0023C10.9996 10.9621 11.0878 10.9031 11.1621 10.8288C11.2365 10.7544 11.2954 10.6662 11.3357 10.5691C11.3759 10.472 11.3966 10.3679 11.3966 10.2628C11.3966 10.1577 11.3759 10.0536 11.3357 9.95646C11.2954 9.85934 11.2365 9.7711 11.1621 9.69678L9.13335 7.66878V4.79998Z" fill="#6B7280"/>
</svg>
