<svg width="17" height="16" viewBox="0 0 17 16" fill="none" xmlns="http://www.w3.org/2000/svg">
<path fill-rule="evenodd" clip-rule="evenodd" d="M8.33359 14.4C10.031 14.4 11.6588 13.7257 12.8591 12.5255C14.0593 11.3252 14.7336 9.69736 14.7336 7.99998C14.7336 6.30259 14.0593 4.67473 12.8591 3.47449C11.6588 2.27426 10.031 1.59998 8.33359 1.59998C6.63621 1.59998 5.00834 2.27426 3.80811 3.47449C2.60788 4.67473 1.93359 6.30259 1.93359 7.99998C1.93359 9.69736 2.60788 11.3252 3.80811 12.5255C5.00834 13.7257 6.63621 14.4 8.33359 14.4ZM9.13359 4.79998C9.13359 4.5878 9.04931 4.38432 8.89928 4.23429C8.74925 4.08426 8.54577 3.99998 8.33359 3.99998C8.12142 3.99998 7.91794 4.08426 7.76791 4.23429C7.61788 4.38432 7.53359 4.5878 7.53359 4.79998V7.99998C7.53364 8.21213 7.61795 8.41558 7.76799 8.56558L10.0304 10.8288C10.1047 10.9031 10.193 10.9621 10.2901 11.0023C10.3872 11.0425 10.4913 11.0632 10.5964 11.0632C10.7015 11.0632 10.8056 11.0425 10.9027 11.0023C10.9998 10.9621 11.0881 10.9031 11.1624 10.8288C11.2367 10.7544 11.2957 10.6662 11.3359 10.5691C11.3761 10.472 11.3968 10.3679 11.3968 10.2628C11.3968 10.1577 11.3761 10.0536 11.3359 9.95646C11.2957 9.85934 11.2367 9.7711 11.1624 9.69678L9.13359 7.66878V4.79998Z" fill="#6B7280"/>
</svg>
