<svg width="16" height="16" viewBox="0 0 16 16" fill="none" xmlns="http://www.w3.org/2000/svg">
<path fill-rule="evenodd" clip-rule="evenodd" d="M8.00001 14.4C9.69739 14.4 11.3253 13.7257 12.5255 12.5255C13.7257 11.3252 14.4 9.69736 14.4 7.99998C14.4 6.30259 13.7257 4.67473 12.5255 3.47449C11.3253 2.27426 9.69739 1.59998 8.00001 1.59998C6.30262 1.59998 4.67476 2.27426 3.47452 3.47449C2.27429 4.67473 1.60001 6.30259 1.60001 7.99998C1.60001 9.69736 2.27429 11.3252 3.47452 12.5255C4.67476 13.7257 6.30262 14.4 8.00001 14.4ZM8.80001 4.79998C8.80001 4.5878 8.71572 4.38432 8.56569 4.23429C8.41566 4.08426 8.21218 3.99998 8.00001 3.99998C7.78783 3.99998 7.58435 4.08426 7.43432 4.23429C7.28429 4.38432 7.20001 4.5878 7.20001 4.79998V7.99998C7.20005 8.21213 7.28437 8.41558 7.43441 8.56558L9.69681 10.8288C9.77113 10.9031 9.85937 10.9621 9.95649 11.0023C10.0536 11.0425 10.1577 11.0632 10.2628 11.0632C10.3679 11.0632 10.472 11.0425 10.5691 11.0023C10.6662 10.9621 10.7545 10.9031 10.8288 10.8288C10.9031 10.7544 10.9621 10.6662 11.0023 10.5691C11.0425 10.472 11.0633 10.3679 11.0633 10.2628C11.0633 10.1577 11.0425 10.0536 11.0023 9.95646C10.9621 9.85934 10.9031 9.7711 10.8288 9.69678L8.80001 7.66878V4.79998Z" fill="#6B7280"/>
</svg>
