<svg width="20" height="20" viewBox="0 0 20 20" fill="none" xmlns="http://www.w3.org/2000/svg">
<path d="M12.5 9.16666H10.8334V5.83333C10.8334 5.61232 10.7456 5.40036 10.5893 5.24408C10.433 5.0878 10.221 5 10 5C9.77901 5 9.56705 5.0878 9.41077 5.24408C9.25449 5.40036 9.16669 5.61232 9.16669 5.83333V10C9.16669 10.221 9.25449 10.433 9.41077 10.5893C9.56705 10.7455 9.77901 10.8333 10 10.8333H12.5C12.721 10.8333 12.933 10.7455 13.0893 10.5893C13.2456 10.433 13.3334 10.221 13.3334 10C13.3334 9.77898 13.2456 9.56702 13.0893 9.41074C12.933 9.25446 12.721 9.16666 12.5 9.16666ZM10 1.66666C8.35185 1.66666 6.74068 2.15541 5.37027 3.07108C3.99986 3.98676 2.93176 5.28825 2.30103 6.81097C1.6703 8.33369 1.50527 10.0092 1.82681 11.6258C2.14836 13.2423 2.94203 14.7271 4.10747 15.8926C5.27291 17.058 6.75776 17.8517 8.37427 18.1732C9.99078 18.4948 11.6663 18.3297 13.1891 17.699C14.7118 17.0683 16.0133 16.0002 16.9289 14.6297C17.8446 13.2593 18.3334 11.6482 18.3334 10C18.3309 7.79061 17.4521 5.67243 15.8899 4.11016C14.3276 2.54788 12.2094 1.66912 10 1.66666ZM10 16.6667C8.68148 16.6667 7.39255 16.2757 6.29622 15.5431C5.19989 14.8106 4.34541 13.7694 3.84083 12.5512C3.33624 11.333 3.20422 9.9926 3.46146 8.6994C3.71869 7.40619 4.35363 6.2183 5.28598 5.28595C6.21833 4.3536 7.40622 3.71866 8.69942 3.46143C9.99263 3.20419 11.3331 3.33622 12.5512 3.8408C13.7694 4.34539 14.8106 5.19987 15.5432 6.2962C16.2757 7.39252 16.6667 8.68146 16.6667 10C16.6647 11.7675 15.9616 13.462 14.7118 14.7118C13.462 15.9616 11.7675 16.6646 10 16.6667Z" fill="black"/>
</svg>
