<svg width="17" height="16" viewBox="0 0 17 16" fill="none" xmlns="http://www.w3.org/2000/svg">
<path fill-rule="evenodd" clip-rule="evenodd" d="M8.66669 14.4C10.3641 14.4 11.9919 13.7257 13.1922 12.5255C14.3924 11.3252 15.0667 9.69736 15.0667 7.99998C15.0667 6.30259 14.3924 4.67473 13.1922 3.47449C11.9919 2.27426 10.3641 1.59998 8.66669 1.59998C6.96931 1.59998 5.34144 2.27426 4.14121 3.47449C2.94098 4.67473 2.26669 6.30259 2.26669 7.99998C2.26669 9.69736 2.94098 11.3252 4.14121 12.5255C5.34144 13.7257 6.96931 14.4 8.66669 14.4ZM9.46669 4.79998C9.46669 4.5878 9.38241 4.38432 9.23238 4.23429C9.08235 4.08426 8.87887 3.99998 8.66669 3.99998C8.45452 3.99998 8.25104 4.08426 8.10101 4.23429C7.95098 4.38432 7.86669 4.5878 7.86669 4.79998V7.99998C7.86674 8.21213 7.95105 8.41558 8.10109 8.56558L10.3635 10.8288C10.4378 10.9031 10.5261 10.9621 10.6232 11.0023C10.7203 11.0425 10.8244 11.0632 10.9295 11.0632C11.0346 11.0632 11.1387 11.0425 11.2358 11.0023C11.3329 10.9621 11.4212 10.9031 11.4955 10.8288C11.5698 10.7544 11.6288 10.6662 11.669 10.5691C11.7092 10.472 11.7299 10.3679 11.7299 10.2628C11.7299 10.1577 11.7092 10.0536 11.669 9.95646C11.6288 9.85934 11.5698 9.7711 11.4955 9.69678L9.46669 7.66878V4.79998Z" fill="#6B7280"/>
</svg>
