<svg width="16" height="16" viewBox="0 0 16 16" fill="none" xmlns="http://www.w3.org/2000/svg">
<path fill-rule="evenodd" clip-rule="evenodd" d="M7.99998 14.4C9.69736 14.4 11.3252 13.7257 12.5255 12.5255C13.7257 11.3252 14.4 9.69736 14.4 7.99998C14.4 6.30259 13.7257 4.67473 12.5255 3.47449C11.3252 2.27426 9.69736 1.59998 7.99998 1.59998C6.30259 1.59998 4.67473 2.27426 3.47449 3.47449C2.27426 4.67473 1.59998 6.30259 1.59998 7.99998C1.59998 9.69736 2.27426 11.3252 3.47449 12.5255C4.67473 13.7257 6.30259 14.4 7.99998 14.4ZM8.79998 4.79998C8.79998 4.5878 8.71569 4.38432 8.56566 4.23429C8.41563 4.08426 8.21215 3.99998 7.99998 3.99998C7.7878 3.99998 7.58432 4.08426 7.43429 4.23429C7.28426 4.38432 7.19998 4.5878 7.19998 4.79998V7.99998C7.20002 8.21213 7.28434 8.41558 7.43438 8.56558L9.69678 10.8288C9.7711 10.9031 9.85934 10.9621 9.95646 11.0023C10.0536 11.0425 10.1577 11.0632 10.2628 11.0632C10.3679 11.0632 10.472 11.0425 10.5691 11.0023C10.6662 10.9621 10.7544 10.9031 10.8288 10.8288C10.9031 10.7544 10.9621 10.6662 11.0023 10.5691C11.0425 10.472 11.0632 10.3679 11.0632 10.2628C11.0632 10.1577 11.0425 10.0536 11.0023 9.95646C10.9621 9.85934 10.9031 9.7711 10.8288 9.69678L8.79998 7.66878V4.79998Z" fill="#6B7280"/>
</svg>
