<svg width="16" height="16" viewBox="0 0 16 16" fill="none" xmlns="http://www.w3.org/2000/svg">
<path fill-rule="evenodd" clip-rule="evenodd" d="M8.0001 14.4C9.69748 14.4 11.3253 13.7257 12.5256 12.5255C13.7258 11.3252 14.4001 9.69736 14.4001 7.99998C14.4001 6.30259 13.7258 4.67473 12.5256 3.47449C11.3253 2.27426 9.69748 1.59998 8.0001 1.59998C6.30271 1.59998 4.67485 2.27426 3.47461 3.47449C2.27438 4.67473 1.6001 6.30259 1.6001 7.99998C1.6001 9.69736 2.27438 11.3252 3.47461 12.5255C4.67485 13.7257 6.30271 14.4 8.0001 14.4ZM8.8001 4.79998C8.8001 4.5878 8.71581 4.38432 8.56578 4.23429C8.41575 4.08426 8.21227 3.99998 8.0001 3.99998C7.78792 3.99998 7.58444 4.08426 7.43441 4.23429C7.28438 4.38432 7.2001 4.5878 7.2001 4.79998V7.99998C7.20014 8.21213 7.28446 8.41558 7.4345 8.56558L9.6969 10.8288C9.77123 10.9031 9.85947 10.9621 9.95658 11.0023C10.0537 11.0425 10.1578 11.0632 10.2629 11.0632C10.368 11.0632 10.4721 11.0425 10.5692 11.0023C10.6663 10.9621 10.7546 10.9031 10.8289 10.8288C10.9032 10.7544 10.9622 10.6662 11.0024 10.5691C11.0426 10.472 11.0633 10.3679 11.0633 10.2628C11.0633 10.1577 11.0426 10.0536 11.0024 9.95646C10.9622 9.85934 10.9032 9.7711 10.8289 9.69678L8.8001 7.66878V4.79998Z" fill="#6B7280"/>
</svg>
