<svg width="20" height="20" viewBox="0 0 20 20" fill="none" xmlns="http://www.w3.org/2000/svg">
<path d="M12.5001 9.16666H10.8334V5.83333C10.8334 5.61232 10.7456 5.40036 10.5893 5.24408C10.4331 5.0878 10.2211 5 10.0001 5C9.77907 5 9.56711 5.0878 9.41083 5.24408C9.25455 5.40036 9.16675 5.61232 9.16675 5.83333V10C9.16675 10.221 9.25455 10.433 9.41083 10.5893C9.56711 10.7455 9.77907 10.8333 10.0001 10.8333H12.5001C12.7211 10.8333 12.9331 10.7455 13.0893 10.5893C13.2456 10.433 13.3334 10.221 13.3334 10C13.3334 9.77898 13.2456 9.56702 13.0893 9.41074C12.9331 9.25446 12.7211 9.16666 12.5001 9.16666ZM10.0001 1.66666C8.35191 1.66666 6.74074 2.15541 5.37033 3.07108C3.99992 3.98676 2.93182 5.28825 2.30109 6.81097C1.67036 8.33369 1.50533 10.0092 1.82687 11.6258C2.14842 13.2423 2.94209 14.7271 4.10753 15.8926C5.27297 17.058 6.75782 17.8517 8.37433 18.1732C9.99084 18.4948 11.6664 18.3297 13.1891 17.699C14.7118 17.0683 16.0133 16.0002 16.929 14.6297C17.8447 13.2593 18.3334 11.6482 18.3334 10C18.331 7.79061 17.4522 5.67243 15.8899 4.11016C14.3277 2.54788 12.2095 1.66912 10.0001 1.66666ZM10.0001 16.6667C8.68154 16.6667 7.39261 16.2757 6.29628 15.5431C5.19996 14.8106 4.34547 13.7694 3.84089 12.5512C3.3363 11.333 3.20428 9.9926 3.46152 8.6994C3.71875 7.40619 4.35369 6.2183 5.28604 5.28595C6.21839 4.3536 7.40628 3.71866 8.69948 3.46143C9.99269 3.20419 11.3331 3.33622 12.5513 3.8408C13.7695 4.34539 14.8107 5.19987 15.5432 6.2962C16.2758 7.39252 16.6668 8.68146 16.6668 10C16.6647 11.7675 15.9617 13.462 14.7119 14.7118C13.4621 15.9616 11.7676 16.6646 10.0001 16.6667Z" fill="black"/>
</svg>
