<svg width="20" height="20" viewBox="0 0 20 20" fill="none" xmlns="http://www.w3.org/2000/svg">
<path d="M12.4998 9.16666H10.8332V5.83333C10.8332 5.61232 10.7454 5.40036 10.5891 5.24408C10.4328 5.0878 10.2209 5 9.99984 5C9.77883 5 9.56687 5.0878 9.41059 5.24408C9.25431 5.40036 9.16651 5.61232 9.16651 5.83333V10C9.16651 10.221 9.25431 10.433 9.41059 10.5893C9.56687 10.7455 9.77883 10.8333 9.99984 10.8333H12.4998C12.7209 10.8333 12.9328 10.7455 13.0891 10.5893C13.2454 10.433 13.3332 10.221 13.3332 10C13.3332 9.77898 13.2454 9.56702 13.0891 9.41074C12.9328 9.25446 12.7209 9.16666 12.4998 9.16666ZM9.99984 1.66666C8.35166 1.66666 6.7405 2.15541 5.37009 3.07108C3.99968 3.98676 2.93158 5.28825 2.30084 6.81097C1.67011 8.33369 1.50509 10.0092 1.82663 11.6258C2.14817 13.2423 2.94185 14.7271 4.10728 15.8926C5.27272 17.058 6.75758 17.8517 8.37409 18.1732C9.9906 18.4948 11.6662 18.3297 13.1889 17.699C14.7116 17.0683 16.0131 16.0002 16.9288 14.6297C17.8444 13.2593 18.3332 11.6482 18.3332 10C18.3307 7.79061 17.452 5.67243 15.8897 4.11016C14.3274 2.54788 12.2092 1.66912 9.99984 1.66666ZM9.99984 16.6667C8.6813 16.6667 7.39237 16.2757 6.29604 15.5431C5.19971 14.8106 4.34523 13.7694 3.84064 12.5512C3.33606 11.333 3.20404 9.9926 3.46127 8.6994C3.71851 7.40619 4.35345 6.2183 5.2858 5.28595C6.21815 4.3536 7.40603 3.71866 8.69924 3.46143C9.99245 3.20419 11.3329 3.33622 12.5511 3.8408C13.7692 4.34539 14.8104 5.19987 15.543 6.2962C16.2755 7.39252 16.6665 8.68146 16.6665 10C16.6645 11.7675 15.9615 13.462 14.7117 14.7118C13.4618 15.9616 11.7673 16.6646 9.99984 16.6667Z" fill="black"/>
</svg>
