<svg width="17" height="16" viewBox="0 0 17 16" fill="none" xmlns="http://www.w3.org/2000/svg">
<g clip-path="url(#clip0_2_5343)">
<mask id="mask0_2_5343" style="mask-type:luminance" maskUnits="userSpaceOnUse" x="0" y="0" width="17" height="16">
<path d="M0.833344 0.5H15.8333V15.5H0.833344V0.5Z" fill="white" stroke="white"/>
</mask>
<g mask="url(#mask0_2_5343)">
<path d="M11.7277 12.1944C10.8275 13.0947 9.60649 13.6004 8.33334 13.6004C7.0602 13.6004 5.83919 13.0947 4.93894 12.1944C4.03869 11.2942 3.53294 10.0732 3.53294 8.80002C3.53294 7.52688 4.03869 6.30588 4.93894 5.40562C4.93894 7.20002 5.13334 8.80002 7.53334 9.60002C7.53334 8.00002 8.33334 3.20002 9.53334 2.40002C10.3333 4.00002 10.7901 4.46882 11.7269 5.40562C12.1735 5.85084 12.5276 6.37992 12.7689 6.96245C13.0103 7.54498 13.1341 8.16947 13.1333 8.80002C13.1342 9.43051 13.0105 10.055 12.7693 10.6375C12.528 11.22 12.1741 11.7491 11.7277 12.1944Z" fill="#6B7280" stroke="#6B7280" stroke-width="2" stroke-linecap="round" stroke-linejoin="round"/>
<path d="M6.99619 11.7495L6.99625 11.7495L6.98979 11.743C6.81479 11.5683 6.68106 11.368 6.58861 11.154C6.94078 11.2353 7.39137 11.3001 7.93334 11.3001H8.43334V10.8001C8.43334 10.4511 8.52548 9.69135 8.69526 8.96369C8.76166 8.67913 8.83722 8.41156 8.91887 8.18418C8.96492 8.25241 9.01126 8.31694 9.05872 8.37914C9.24765 8.6268 9.44522 8.82506 9.67629 9.05652L9.67623 9.05658L9.68279 9.06292C9.86426 9.23819 10.009 9.44784 10.1086 9.67965C10.2082 9.91146 10.2606 10.1608 10.2628 10.4131C10.265 10.6653 10.2169 10.9155 10.1213 11.149C10.0258 11.3825 9.88473 11.5947 9.70634 11.7731C9.52794 11.9515 9.3158 12.0925 9.0823 12.1881C8.8488 12.2836 8.59861 12.3317 8.34632 12.3295C8.09404 12.3273 7.84473 12.2749 7.61292 12.1753C7.38111 12.0757 7.17146 11.931 6.99619 11.7495Z" fill="#6B7280" stroke="#6B7280"/>
</g>
</g>
<defs>
<clipPath id="clip0_2_5343">
<rect width="16" height="16" fill="white" transform="translate(0.333344)"/>
</clipPath>
</defs>
</svg>
