<svg width="33" height="32" viewBox="0 0 33 32" fill="none" xmlns="http://www.w3.org/2000/svg">
<path d="M11.82 11.1234L11.8174 11.1247L11.8134 11.1274L11.82 11.1234ZM25.0091 10.8756C24.9169 10.7867 24.8146 10.7088 24.7043 10.6437C24.5482 10.5518 24.3748 10.4929 24.195 10.4706C24.0152 10.4483 23.8327 10.4632 23.6589 10.5142C23.485 10.5652 23.3235 10.6514 23.1842 10.7673C23.045 10.8833 22.931 11.0266 22.8493 11.1883C22.393 12.0879 21.7635 12.8885 20.997 13.5442C21.1145 12.8837 21.1739 12.2142 21.1745 11.5434C21.1771 9.50309 20.6389 7.49854 19.6148 5.73384C18.5907 3.96915 17.1173 2.50734 15.3445 1.49725C15.1492 1.38626 14.9288 1.32676 14.7041 1.32436C14.4795 1.32195 14.2579 1.37672 14.0602 1.48351C13.8625 1.5903 13.6952 1.74561 13.5741 1.93483C13.4529 2.12405 13.3819 2.34097 13.3676 2.5652C13.2934 3.82144 12.965 5.04953 12.4022 6.1751C11.8395 7.30066 11.054 8.30027 10.0936 9.11335L9.78881 9.36113C8.78394 10.0372 7.89452 10.8707 7.15471 11.8296C6.00497 13.278 5.20853 14.9743 4.82856 16.7841C4.44858 18.5939 4.49553 20.4673 4.96567 22.2558C5.4358 24.0443 6.3162 25.6986 7.53703 27.0876C8.75786 28.4765 10.2855 29.562 11.9989 30.2577C12.2001 30.3396 12.4183 30.3708 12.6343 30.3485C12.8503 30.3262 13.0576 30.2512 13.2378 30.13C13.418 30.0088 13.5657 29.8451 13.6678 29.6535C13.77 29.4618 13.8234 29.2479 13.8234 29.0308C13.8223 28.8904 13.8 28.751 13.7572 28.6174C13.4607 27.5031 13.3753 26.3432 13.5054 25.1975C14.7595 27.5621 16.7723 29.4363 19.2202 30.5187C19.5188 30.6522 19.8564 30.6702 20.1675 30.5691C22.1013 29.9448 23.8434 28.8365 25.2282 27.3493C26.6131 25.8622 27.5947 24.0457 28.0798 22.0724C28.565 20.0991 28.5375 18.0345 28 16.0748C27.4626 14.1151 26.433 12.3254 25.0091 10.8756ZM19.835 27.8767C18.6799 27.2914 17.661 26.4696 16.8445 25.4647C16.0279 24.4599 15.432 23.2944 15.0954 22.044C14.9925 21.623 14.9129 21.1966 14.8569 20.7667C14.8192 20.493 14.6969 20.238 14.5071 20.0372C14.3173 19.8364 14.0694 19.7001 13.7983 19.6471C13.7149 19.6309 13.6301 19.6229 13.5452 19.6233C13.3124 19.623 13.0836 19.6841 12.8819 19.8004C12.6803 19.9167 12.5128 20.0841 12.3964 20.2858C11.2972 22.1822 10.7446 24.3459 10.7998 26.5371C9.83274 25.7854 9.02451 24.8493 8.42196 23.7829C7.8194 22.7166 7.4345 21.5412 7.28956 20.325C7.14462 19.1088 7.24252 17.8759 7.57761 16.6978C7.91269 15.5197 8.47827 14.4199 9.24158 13.462C9.82116 12.7092 10.5203 12.0566 11.3112 11.5302C11.3458 11.508 11.379 11.4836 11.4106 11.4573C11.4106 11.4573 11.8028 11.1327 11.8161 11.126C13.7044 9.52946 15.0477 7.38352 15.6586 4.9873C17.1021 6.32206 18.0644 8.0961 18.3963 10.0339C18.7281 11.9717 18.4108 13.9649 17.4937 15.7039C17.3723 15.936 17.3225 16.1989 17.3504 16.4593C17.3784 16.7198 17.4829 16.9661 17.6508 17.1671C17.8186 17.3682 18.0424 17.515 18.2936 17.5889C18.5449 17.6629 18.8124 17.6608 19.0625 17.5828C21.092 16.9463 22.8779 15.7033 24.1796 14.0212C24.9623 15.1769 25.474 16.4943 25.6767 17.8753C25.8794 19.2563 25.7677 20.6653 25.3501 21.9971C24.9325 23.329 24.2196 24.5494 23.2647 25.5674C22.3098 26.5854 21.1374 27.3748 19.835 27.8767Z" fill="#34D399"/>
</svg>
