<svg width="17" height="16" viewBox="0 0 17 16" fill="none" xmlns="http://www.w3.org/2000/svg">
<g clip-path="url(#clip0_2_5687)">
<mask id="mask0_2_5687" style="mask-type:luminance" maskUnits="userSpaceOnUse" x="0" y="0" width="17" height="16">
<path d="M0.833496 0.5H15.8335V15.5H0.833496V0.5Z" fill="white" stroke="white"/>
</mask>
<g mask="url(#mask0_2_5687)">
<path d="M11.728 12.1944C10.8278 13.0947 9.60676 13.6004 8.33361 13.6004C7.06046 13.6004 5.83946 13.0947 4.93921 12.1944C4.03896 11.2942 3.5332 10.0732 3.5332 8.80002C3.5332 7.52688 4.03896 6.30588 4.93921 5.40562C4.93921 7.20002 5.13361 8.80002 7.53361 9.60002C7.53361 8.00002 8.33361 3.20002 9.53361 2.40002C10.3336 4.00002 10.7904 4.46882 11.7272 5.40562C12.1737 5.85084 12.5279 6.37992 12.7692 6.96245C13.0106 7.54498 13.1344 8.16947 13.1336 8.80002C13.1345 9.43051 13.0107 10.055 12.7695 10.6375C12.5283 11.22 12.1744 11.7491 11.728 12.1944Z" fill="#6B7280" stroke="#6B7280" stroke-width="2" stroke-linecap="round" stroke-linejoin="round"/>
<path d="M6.99644 11.7495L6.9965 11.7495L6.99005 11.743C6.81505 11.5683 6.68132 11.368 6.58887 11.154C6.94104 11.2353 7.39162 11.3001 7.93359 11.3001H8.43359V10.8001C8.43359 10.4511 8.52573 9.69135 8.69551 8.96369C8.76191 8.67913 8.83747 8.41156 8.91912 8.18418C8.96517 8.25241 9.01151 8.31694 9.05897 8.37914C9.2479 8.6268 9.44547 8.82506 9.67654 9.05652L9.67648 9.05658L9.68304 9.06292C9.86451 9.23819 10.0093 9.44784 10.1088 9.67965C10.2084 9.91146 10.2608 10.1608 10.263 10.4131C10.2652 10.6653 10.2171 10.9155 10.1216 11.149C10.0261 11.3825 9.88498 11.5947 9.70659 11.7731C9.52819 11.9515 9.31605 12.0925 9.08255 12.1881C8.84905 12.2836 8.59886 12.3317 8.34658 12.3295C8.09429 12.3273 7.84498 12.2749 7.61317 12.1753C7.38136 12.0757 7.17171 11.931 6.99644 11.7495Z" fill="#6B7280" stroke="#6B7280"/>
</g>
</g>
<defs>
<clipPath id="clip0_2_5687">
<rect width="16" height="16" fill="white" transform="translate(0.333496)"/>
</clipPath>
</defs>
</svg>
