<svg width="17" height="16" viewBox="0 0 17 16" fill="none" xmlns="http://www.w3.org/2000/svg">
<g clip-path="url(#clip0_2_5705)">
<mask id="mask0_2_5705" style="mask-type:luminance" maskUnits="userSpaceOnUse" x="0" y="0" width="17" height="16">
<path d="M1.1665 0.5H16.1665V15.5H1.1665V0.5Z" fill="white" stroke="white"/>
</mask>
<g mask="url(#mask0_2_5705)">
<path d="M12.061 12.1944C11.1608 13.0947 9.93976 13.6004 8.66662 13.6004C7.39347 13.6004 6.17247 13.0947 5.27222 12.1944C4.37197 11.2942 3.86621 10.0732 3.86621 8.80002C3.86621 7.52688 4.37197 6.30588 5.27222 5.40562C5.27222 7.20002 5.46662 8.80002 7.86662 9.60002C7.86662 8.00002 8.66662 3.20002 9.86662 2.40002C10.6666 4.00002 11.1234 4.46882 12.0602 5.40562C12.5067 5.85084 12.8609 6.37992 13.1022 6.96245C13.3436 7.54498 13.4674 8.16947 13.4666 8.80002C13.4675 9.43051 13.3437 10.055 13.1025 10.6375C12.8613 11.22 12.5074 11.7491 12.061 12.1944Z" fill="#6B7280" stroke="#6B7280" stroke-width="2" stroke-linecap="round" stroke-linejoin="round"/>
<path d="M7.32945 11.7495L7.32951 11.7495L7.32305 11.743C7.14805 11.5683 7.01432 11.368 6.92187 11.154C7.27404 11.2353 7.72463 11.3001 8.2666 11.3001H8.7666V10.8001C8.7666 10.4511 8.85873 9.69135 9.02852 8.96369C9.09492 8.67913 9.17047 8.41156 9.25213 8.18418C9.29818 8.25241 9.34452 8.31694 9.39198 8.37914C9.58091 8.6268 9.77848 8.82506 10.0095 9.05652L10.0095 9.05658L10.016 9.06292C10.1975 9.23819 10.3423 9.44784 10.4418 9.67965C10.5414 9.91146 10.5938 10.1608 10.596 10.4131C10.5982 10.6653 10.5501 10.9155 10.4546 11.149C10.3591 11.3825 10.218 11.5947 10.0396 11.7731C9.8612 11.9515 9.64906 12.0925 9.41556 12.1881C9.18206 12.2836 8.93186 12.3317 8.67958 12.3295C8.4273 12.3273 8.17798 12.2749 7.94618 12.1753C7.71437 12.0757 7.50471 11.931 7.32945 11.7495Z" fill="#6B7280" stroke="#6B7280"/>
</g>
</g>
<defs>
<clipPath id="clip0_2_5705">
<rect width="16" height="16" fill="white" transform="translate(0.666504)"/>
</clipPath>
</defs>
</svg>
