<svg width="17" height="16" viewBox="0 0 17 16" fill="none" xmlns="http://www.w3.org/2000/svg">
<g clip-path="url(#clip0_2_5379)">
<mask id="mask0_2_5379" style="mask-type:luminance" maskUnits="userSpaceOnUse" x="0" y="0" width="17" height="16">
<path d="M1.16669 0.5H16.1667V15.5H1.16669V0.5Z" fill="white" stroke="white"/>
</mask>
<g mask="url(#mask0_2_5379)">
<path d="M12.0611 12.1944C11.1608 13.0947 9.93983 13.6004 8.66668 13.6004C7.39353 13.6004 6.17253 13.0947 5.27228 12.1944C4.37203 11.2942 3.86627 10.0732 3.86627 8.80002C3.86627 7.52688 4.37203 6.30588 5.27228 5.40562C5.27228 7.20002 5.46668 8.80002 7.86668 9.60002C7.86668 8.00002 8.66668 3.20002 9.86668 2.40002C10.6667 4.00002 11.1235 4.46882 12.0603 5.40562C12.5068 5.85084 12.8609 6.37992 13.1023 6.96245C13.3436 7.54498 13.4675 8.16947 13.4667 8.80002C13.4675 9.43051 13.3438 10.055 13.1026 10.6375C12.8614 11.22 12.5074 11.7491 12.0611 12.1944Z" fill="#6B7280" stroke="#6B7280" stroke-width="2" stroke-linecap="round" stroke-linejoin="round"/>
<path d="M7.32954 11.7495L7.3296 11.7495L7.32314 11.743C7.14815 11.5683 7.01442 11.368 6.92197 11.154C7.27414 11.2353 7.72472 11.3001 8.26669 11.3001H8.76669V10.8001C8.76669 10.4511 8.85883 9.69135 9.02861 8.96369C9.09501 8.67913 9.17057 8.41156 9.25222 8.18418C9.29827 8.25241 9.34461 8.31694 9.39207 8.37914C9.581 8.6268 9.77857 8.82506 10.0096 9.05652L10.0096 9.05658L10.0161 9.06292C10.1976 9.23819 10.3424 9.44784 10.4419 9.67965C10.5415 9.91146 10.5939 10.1608 10.5961 10.4131C10.5983 10.6653 10.5502 10.9155 10.4547 11.149C10.3592 11.3825 10.2181 11.5947 10.0397 11.7731C9.86129 11.9515 9.64915 12.0925 9.41565 12.1881C9.18215 12.2836 8.93196 12.3317 8.67968 12.3295C8.42739 12.3273 8.17808 12.2749 7.94627 12.1753C7.71446 12.0757 7.50481 11.931 7.32954 11.7495Z" fill="#6B7280" stroke="#6B7280"/>
</g>
</g>
<defs>
<clipPath id="clip0_2_5379">
<rect width="16" height="16" fill="white" transform="translate(0.666687)"/>
</clipPath>
</defs>
</svg>
