<svg width="16" height="16" viewBox="0 0 16 16" fill="none" xmlns="http://www.w3.org/2000/svg">
<g clip-path="url(#clip0_2_5361)">
<mask id="mask0_2_5361" style="mask-type:luminance" maskUnits="userSpaceOnUse" x="0" y="0" width="16" height="16">
<path d="M0.5 0.5H15.5V15.5H0.5V0.5Z" fill="white" stroke="white"/>
</mask>
<g mask="url(#mask0_2_5361)">
<path d="M11.3944 12.1944C10.4941 13.0947 9.27314 13.6004 7.99999 13.6004C6.72684 13.6004 5.50584 13.0947 4.60559 12.1944C3.70534 11.2942 3.19958 10.0732 3.19958 8.80002C3.19958 7.52688 3.70534 6.30588 4.60559 5.40562C4.60559 7.20002 4.79999 8.80002 7.19999 9.60002C7.19999 8.00002 7.99999 3.20002 9.19999 2.40002C9.99999 4.00002 10.4568 4.46882 11.3936 5.40562C11.8401 5.85084 12.1942 6.37992 12.4356 6.96245C12.677 7.54498 12.8008 8.16947 12.8 8.80002C12.8009 9.43051 12.6771 10.055 12.4359 10.6375C12.1947 11.22 11.8407 11.7491 11.3944 12.1944Z" fill="#6B7280" stroke="#6B7280" stroke-width="2" stroke-linecap="round" stroke-linejoin="round"/>
<path d="M6.66282 11.7495L6.66288 11.7495L6.65643 11.743C6.48143 11.5683 6.3477 11.368 6.25525 11.154C6.60742 11.2353 7.058 11.3001 7.59998 11.3001H8.09998V10.8001C8.09998 10.4511 8.19211 9.69135 8.3619 8.96369C8.42829 8.67913 8.50385 8.41156 8.58551 8.18418C8.63155 8.25241 8.67789 8.31694 8.72535 8.37914C8.91428 8.6268 9.11185 8.82506 9.34292 9.05652L9.34286 9.05658L9.34942 9.06292C9.53089 9.23819 9.67564 9.44784 9.77521 9.67965C9.87479 9.91146 9.9272 10.1608 9.9294 10.4131C9.93159 10.6653 9.88351 10.9155 9.78798 11.149C9.69245 11.3825 9.55137 11.5947 9.37297 11.7731C9.19457 11.9515 8.98244 12.0925 8.74893 12.1881C8.51543 12.2836 8.26524 12.3317 8.01296 12.3295C7.76068 12.3273 7.51136 12.2749 7.27955 12.1753C7.04774 12.0757 6.83809 11.931 6.66282 11.7495Z" fill="#6B7280" stroke="#6B7280"/>
</g>
</g>
<defs>
<clipPath id="clip0_2_5361">
<rect width="16" height="16" fill="white"/>
</clipPath>
</defs>
</svg>
