<svg width="33" height="32" viewBox="0 0 33 32" fill="none" xmlns="http://www.w3.org/2000/svg">
<path d="M11.8202 11.1234L11.8175 11.1247L11.8135 11.1274L11.8202 11.1234ZM25.0092 10.8756C24.917 10.7867 24.8147 10.7088 24.7045 10.6437C24.5483 10.5518 24.375 10.4929 24.1951 10.4706C24.0153 10.4483 23.8328 10.4632 23.659 10.5142C23.4851 10.5652 23.3236 10.6514 23.1843 10.7673C23.0451 10.8833 22.9311 11.0266 22.8495 11.1883C22.3931 12.0879 21.7636 12.8885 20.9971 13.5442C21.1146 12.8837 21.174 12.2142 21.1747 11.5434C21.1772 9.50309 20.639 7.49854 19.6149 5.73384C18.5908 3.96915 17.1174 2.50734 15.3447 1.49725C15.1493 1.38626 14.9289 1.32676 14.7043 1.32436C14.4796 1.32195 14.258 1.37672 14.0603 1.48351C13.8626 1.5903 13.6954 1.74561 13.5742 1.93483C13.4531 2.12405 13.382 2.34097 13.3678 2.5652C13.2936 3.82144 12.9651 5.04953 12.4024 6.1751C11.8396 7.30066 11.0542 8.30027 10.0937 9.11335L9.78893 9.36113C8.78407 10.0372 7.89465 10.8707 7.15483 11.8296C6.00509 13.278 5.20866 14.9743 4.82868 16.7841C4.44871 18.5939 4.49565 20.4673 4.96579 22.2558C5.43592 24.0443 6.31632 25.6986 7.53715 27.0876C8.75799 28.4765 10.2857 29.562 11.999 30.2577C12.2002 30.3396 12.4184 30.3708 12.6344 30.3485C12.8505 30.3262 13.0577 30.2512 13.2379 30.13C13.4182 30.0088 13.5658 29.8451 13.668 29.6535C13.7701 29.4618 13.8235 29.2479 13.8236 29.0308C13.8224 28.8904 13.8001 28.751 13.7573 28.6174C13.4609 27.5031 13.3755 26.3432 13.5056 25.1975C14.7596 27.5621 16.7724 29.4363 19.2203 30.5187C19.5189 30.6522 19.8565 30.6702 20.1677 30.5691C22.1015 29.9448 23.8435 28.8365 25.2284 27.3493C26.6132 25.8622 27.5948 24.0457 28.08 22.0724C28.5651 20.0991 28.5376 18.0345 28.0002 16.0748C27.4627 14.1151 26.4331 12.3254 25.0092 10.8756ZM19.8351 27.8767C18.6801 27.2914 17.6611 26.4696 16.8446 25.4647C16.028 24.4599 15.4321 23.2944 15.0956 22.044C14.9927 21.623 14.913 21.1966 14.8571 20.7667C14.8194 20.493 14.697 20.238 14.5072 20.0372C14.3174 19.8364 14.0695 19.7001 13.7984 19.6471C13.715 19.6309 13.6302 19.6229 13.5453 19.6233C13.3125 19.623 13.0837 19.6841 12.8821 19.8004C12.6804 19.9167 12.5129 20.0841 12.3965 20.2858C11.2974 22.1822 10.7447 24.3459 10.7999 26.5371C9.83286 25.7854 9.02464 24.8493 8.42208 23.7829C7.81952 22.7166 7.43462 21.5412 7.28968 20.325C7.14474 19.1088 7.24265 17.8759 7.57773 16.6978C7.91281 15.5197 8.47839 14.4199 9.2417 13.462C9.82128 12.7092 10.5205 12.0566 11.3114 11.5302C11.346 11.508 11.3792 11.4836 11.4107 11.4573C11.4107 11.4573 11.8029 11.1327 11.8162 11.126C13.7046 9.52946 15.0478 7.38352 15.6587 4.9873C17.1022 6.32206 18.0646 8.0961 18.3964 10.0339C18.7282 11.9717 18.4109 13.9649 17.4938 15.7039C17.3724 15.936 17.3226 16.1989 17.3505 16.4593C17.3785 16.7198 17.483 16.9661 17.6509 17.1671C17.8188 17.3682 18.0425 17.515 18.2937 17.5889C18.545 17.6629 18.8126 17.6608 19.0626 17.5828C21.0921 16.9463 22.878 15.7033 24.1798 14.0212C24.9624 15.1769 25.4742 16.4943 25.6768 17.8753C25.8795 19.2563 25.7678 20.6653 25.3502 21.9971C24.9326 23.329 24.2197 24.5494 23.2648 25.5674C22.3099 26.5854 21.1375 27.3748 19.8351 27.8767Z" fill="#34D399"/>
</svg>
