<svg width="16" height="16" viewBox="0 0 16 16" fill="none" xmlns="http://www.w3.org/2000/svg">
<g clip-path="url(#clip0_2_5774)">
<mask id="mask0_2_5774" style="mask-type:luminance" maskUnits="userSpaceOnUse" x="0" y="0" width="16" height="16">
<path d="M0.5 0.5H15.5V15.5H0.5V0.5Z" fill="white" stroke="white"/>
</mask>
<g mask="url(#mask0_2_5774)">
<path d="M11.3945 12.1944C10.4943 13.0947 9.27326 13.6004 8.00011 13.6004C6.72697 13.6004 5.50596 13.0947 4.60571 12.1944C3.70546 11.2942 3.19971 10.0732 3.19971 8.80002C3.19971 7.52688 3.70546 6.30588 4.60571 5.40562C4.60571 7.20002 4.80011 8.80002 7.20011 9.60002C7.20011 8.00002 8.00011 3.20002 9.20011 2.40002C10.0001 4.00002 10.4569 4.46882 11.3937 5.40562C11.8402 5.85084 12.1944 6.37992 12.4357 6.96245C12.6771 7.54498 12.8009 8.16947 12.8001 8.80002C12.801 9.43051 12.6772 10.055 12.436 10.6375C12.1948 11.22 11.8409 11.7491 11.3945 12.1944Z" fill="#6B7280" stroke="#6B7280" stroke-width="2" stroke-linecap="round" stroke-linejoin="round"/>
<path d="M6.66294 11.7495L6.663 11.7495L6.65655 11.743C6.48155 11.5683 6.34782 11.368 6.25537 11.154C6.60754 11.2353 7.05813 11.3001 7.6001 11.3001H8.1001V10.8001C8.1001 10.4511 8.19223 9.69135 8.36202 8.96369C8.42842 8.67913 8.50397 8.41156 8.58563 8.18418C8.63167 8.25241 8.67801 8.31694 8.72547 8.37914C8.9144 8.6268 9.11197 8.82506 9.34304 9.05652L9.34298 9.05658L9.34954 9.06292C9.53101 9.23819 9.67576 9.44784 9.77533 9.67965C9.87491 9.91146 9.92733 10.1608 9.92952 10.4131C9.93171 10.6653 9.88364 10.9155 9.7881 11.149C9.69257 11.3825 9.55149 11.5947 9.37309 11.7731C9.1947 11.9515 8.98256 12.0925 8.74905 12.1881C8.51555 12.2836 8.26536 12.3317 8.01308 12.3295C7.7608 12.3273 7.51148 12.2749 7.27967 12.1753C7.04787 12.0757 6.83821 11.931 6.66294 11.7495Z" fill="#6B7280" stroke="#6B7280"/>
</g>
</g>
<defs>
<clipPath id="clip0_2_5774">
<rect width="16" height="16" fill="white"/>
</clipPath>
</defs>
</svg>
