<svg width="16" height="16" viewBox="0 0 16 16" fill="none" xmlns="http://www.w3.org/2000/svg">
<g clip-path="url(#clip0_2_5325)">
<mask id="mask0_2_5325" style="mask-type:luminance" maskUnits="userSpaceOnUse" x="0" y="0" width="16" height="16">
<path d="M0.5 0.5H15.5V15.5H0.5V0.5Z" fill="white" stroke="white"/>
</mask>
<g mask="url(#mask0_2_5325)">
<path d="M11.3944 12.1944C10.4942 13.0947 9.27315 13.6004 8.00001 13.6004C6.72686 13.6004 5.50586 13.0947 4.60561 12.1944C3.70536 11.2942 3.1996 10.0732 3.1996 8.80002C3.1996 7.52688 3.70536 6.30588 4.60561 5.40562C4.60561 7.20002 4.80001 8.80002 7.20001 9.60002C7.20001 8.00002 8.00001 3.20002 9.20001 2.40002C10 4.00002 10.4568 4.46882 11.3936 5.40562C11.8401 5.85084 12.1942 6.37992 12.4356 6.96245C12.677 7.54498 12.8008 8.16947 12.8 8.80002C12.8009 9.43051 12.6771 10.055 12.4359 10.6375C12.1947 11.22 11.8407 11.7491 11.3944 12.1944Z" fill="#6B7280" stroke="#6B7280" stroke-width="2" stroke-linecap="round" stroke-linejoin="round"/>
<path d="M6.66285 11.7495L6.66291 11.7495L6.65646 11.743C6.48146 11.5683 6.34773 11.368 6.25528 11.154C6.60745 11.2353 7.05803 11.3001 7.60001 11.3001H8.10001V10.8001C8.10001 10.4511 8.19214 9.69135 8.36193 8.96369C8.42832 8.67913 8.50388 8.41156 8.58554 8.18418C8.63158 8.25241 8.67792 8.31694 8.72538 8.37914C8.91431 8.6268 9.11188 8.82506 9.34295 9.05652L9.34289 9.05658L9.34945 9.06292C9.53092 9.23819 9.67567 9.44784 9.77524 9.67965C9.87482 9.91146 9.92723 10.1608 9.92943 10.4131C9.93162 10.6653 9.88355 10.9155 9.78801 11.149C9.69248 11.3825 9.5514 11.5947 9.373 11.7731C9.1946 11.9515 8.98247 12.0925 8.74896 12.1881C8.51546 12.2836 8.26527 12.3317 8.01299 12.3295C7.76071 12.3273 7.51139 12.2749 7.27958 12.1753C7.04777 12.0757 6.83812 11.931 6.66285 11.7495Z" fill="#6B7280" stroke="#6B7280"/>
</g>
</g>
<defs>
<clipPath id="clip0_2_5325">
<rect width="16" height="16" fill="white"/>
</clipPath>
</defs>
</svg>
