<svg width="17" height="16" viewBox="0 0 17 16" fill="none" xmlns="http://www.w3.org/2000/svg">
<g clip-path="url(#clip0_2_5415)">
<mask id="mask0_2_5415" style="mask-type:luminance" maskUnits="userSpaceOnUse" x="0" y="0" width="17" height="16">
<path d="M1.16675 0.5H16.1667V15.5H1.16675V0.5Z" fill="white" stroke="white"/>
</mask>
<g mask="url(#mask0_2_5415)">
<path d="M12.0611 12.1944C11.1609 13.0947 9.93989 13.6004 8.66674 13.6004C7.39359 13.6004 6.17259 13.0947 5.27234 12.1944C4.37209 11.2942 3.86633 10.0732 3.86633 8.80002C3.86633 7.52688 4.37209 6.30588 5.27234 5.40562C5.27234 7.20002 5.46674 8.80002 7.86674 9.60002C7.86674 8.00002 8.66674 3.20002 9.86674 2.40002C10.6667 4.00002 11.1235 4.46882 12.0603 5.40562C12.5069 5.85084 12.861 6.37992 13.1023 6.96245C13.3437 7.54498 13.4675 8.16947 13.4667 8.80002C13.4676 9.43051 13.3439 10.055 13.1026 10.6375C12.8614 11.22 12.5075 11.7491 12.0611 12.1944Z" fill="#6B7280" stroke="#6B7280" stroke-width="2" stroke-linecap="round" stroke-linejoin="round"/>
<path d="M7.32957 11.7495L7.32963 11.7495L7.32318 11.743C7.14818 11.5683 7.01445 11.368 6.922 11.154C7.27417 11.2353 7.72475 11.3001 8.26672 11.3001H8.76672V10.8001C8.76672 10.4511 8.85886 9.69135 9.02864 8.96369C9.09504 8.67913 9.1706 8.41156 9.25225 8.18418C9.2983 8.25241 9.34464 8.31694 9.3921 8.37914C9.58103 8.6268 9.7786 8.82506 10.0097 9.05652L10.0096 9.05658L10.0162 9.06292C10.1976 9.23819 10.3424 9.44784 10.442 9.67965C10.5415 9.91146 10.594 10.1608 10.5961 10.4131C10.5983 10.6653 10.5503 10.9155 10.4547 11.149C10.3592 11.3825 10.2181 11.5947 10.0397 11.7731C9.86132 11.9515 9.64918 12.0925 9.41568 12.1881C9.18218 12.2836 8.93199 12.3317 8.67971 12.3295C8.42742 12.3273 8.17811 12.2749 7.9463 12.1753C7.71449 12.0757 7.50484 11.931 7.32957 11.7495Z" fill="#6B7280" stroke="#6B7280"/>
</g>
</g>
<defs>
<clipPath id="clip0_2_5415">
<rect width="16" height="16" fill="white" transform="translate(0.666748)"/>
</clipPath>
</defs>
</svg>
