<svg width="17" height="16" viewBox="0 0 17 16" fill="none" xmlns="http://www.w3.org/2000/svg">
<g clip-path="url(#clip0_2_5633)">
<mask id="mask0_2_5633" style="mask-type:luminance" maskUnits="userSpaceOnUse" x="0" y="0" width="17" height="16">
<path d="M1.16675 0.5H16.1667V15.5H1.16675V0.5Z" fill="white" stroke="white"/>
</mask>
<g mask="url(#mask0_2_5633)">
<path d="M12.0613 12.1944C11.161 13.0947 9.94001 13.6004 8.66686 13.6004C7.39371 13.6004 6.17271 13.0947 5.27246 12.1944C4.37221 11.2942 3.86646 10.0732 3.86646 8.80002C3.86646 7.52688 4.37221 6.30588 5.27246 5.40562C5.27246 7.20002 5.46686 8.80002 7.86686 9.60002C7.86686 8.00002 8.66686 3.20002 9.86686 2.40002C10.6669 4.00002 11.1237 4.46882 12.0605 5.40562C12.507 5.85084 12.8611 6.37992 13.1025 6.96245C13.3438 7.54498 13.4677 8.16947 13.4669 8.80002C13.4677 9.43051 13.344 10.055 13.1028 10.6375C12.8616 11.22 12.5076 11.7491 12.0613 12.1944Z" fill="#6B7280" stroke="#6B7280" stroke-width="2" stroke-linecap="round" stroke-linejoin="round"/>
<path d="M7.32969 11.7495L7.32975 11.7495L7.3233 11.743C7.1483 11.5683 7.01457 11.368 6.92212 11.154C7.27429 11.2353 7.72487 11.3001 8.26685 11.3001H8.76685V10.8001C8.76685 10.4511 8.85898 9.69135 9.02877 8.96369C9.09516 8.67913 9.17072 8.41156 9.25238 8.18418C9.29842 8.25241 9.34476 8.31694 9.39222 8.37914C9.58115 8.6268 9.77872 8.82506 10.0098 9.05652L10.0097 9.05658L10.0163 9.06292C10.1978 9.23819 10.3425 9.44784 10.4421 9.67965C10.5417 9.91146 10.5941 10.1608 10.5963 10.4131C10.5985 10.6653 10.5504 10.9155 10.4549 11.149C10.3593 11.3825 10.2182 11.5947 10.0398 11.7731C9.86144 11.9515 9.64931 12.0925 9.4158 12.1881C9.1823 12.2836 8.93211 12.3317 8.67983 12.3295C8.42755 12.3273 8.17823 12.2749 7.94642 12.1753C7.71461 12.0757 7.50496 11.931 7.32969 11.7495Z" fill="#6B7280" stroke="#6B7280"/>
</g>
</g>
<defs>
<clipPath id="clip0_2_5633">
<rect width="16" height="16" fill="white" transform="translate(0.666748)"/>
</clipPath>
</defs>
</svg>
