<svg width="17" height="16" viewBox="0 0 17 16" fill="none" xmlns="http://www.w3.org/2000/svg">
<g clip-path="url(#clip0_2_5615)">
<mask id="mask0_2_5615" style="mask-type:luminance" maskUnits="userSpaceOnUse" x="0" y="0" width="17" height="16">
<path d="M0.833252 0.5H15.8333V15.5H0.833252V0.5Z" fill="white" stroke="white"/>
</mask>
<g mask="url(#mask0_2_5615)">
<path d="M11.7278 12.1944C10.8275 13.0947 9.60651 13.6004 8.33337 13.6004C7.06022 13.6004 5.83922 13.0947 4.93897 12.1944C4.03871 11.2942 3.53296 10.0732 3.53296 8.80002C3.53296 7.52688 4.03871 6.30588 4.93897 5.40562C4.93897 7.20002 5.13337 8.80002 7.53337 9.60002C7.53337 8.00002 8.33337 3.20002 9.53337 2.40002C10.3334 4.00002 10.7902 4.46882 11.727 5.40562C12.1735 5.85084 12.5276 6.37992 12.769 6.96245C13.0103 7.54498 13.1342 8.16947 13.1334 8.80002C13.1342 9.43051 13.0105 10.055 12.7693 10.6375C12.5281 11.22 12.1741 11.7491 11.7278 12.1944Z" fill="#6B7280" stroke="#6B7280" stroke-width="2" stroke-linecap="round" stroke-linejoin="round"/>
<path d="M6.99619 11.7495L6.99625 11.7495L6.9898 11.743C6.8148 11.5683 6.68107 11.368 6.58862 11.154C6.94079 11.2353 7.39138 11.3001 7.93335 11.3001H8.43335V10.8001C8.43335 10.4511 8.52548 9.69135 8.69527 8.96369C8.76167 8.67913 8.83722 8.41156 8.91888 8.18418C8.96492 8.25241 9.01127 8.31694 9.05872 8.37914C9.24766 8.6268 9.44522 8.82506 9.67629 9.05652L9.67624 9.05658L9.68279 9.06292C9.86426 9.23819 10.009 9.44784 10.1086 9.67965C10.2082 9.91146 10.2606 10.1608 10.2628 10.4131C10.265 10.6653 10.2169 10.9155 10.1214 11.149C10.0258 11.3825 9.88474 11.5947 9.70634 11.7731C9.52795 11.9515 9.31581 12.0925 9.08231 12.1881C8.8488 12.2836 8.59861 12.3317 8.34633 12.3295C8.09405 12.3273 7.84473 12.2749 7.61293 12.1753C7.38112 12.0757 7.17146 11.931 6.99619 11.7495Z" fill="#6B7280" stroke="#6B7280"/>
</g>
</g>
<defs>
<clipPath id="clip0_2_5615">
<rect width="16" height="16" fill="white" transform="translate(0.333252)"/>
</clipPath>
</defs>
</svg>
