<svg width="24" height="24" viewBox="0 0 24 24" fill="none" xmlns="http://www.w3.org/2000/svg">
<g opacity="0.5">
<path d="M12.8482 2.75161C12.6232 2.52665 12.318 2.40027 11.9998 2.40027C11.6816 2.40027 11.3764 2.52665 11.1514 2.75161L2.7514 11.1516C2.53282 11.3779 2.41186 11.6811 2.4146 11.9957C2.41733 12.3103 2.54353 12.6113 2.76602 12.8338C2.98851 13.0563 3.28949 13.1825 3.60412 13.1852C3.91876 13.188 4.22188 13.067 4.4482 12.8484L4.7998 12.4968V20.4C4.7998 20.7183 4.92623 21.0235 5.15128 21.2485C5.37632 21.4736 5.68155 21.6 5.99981 21.6H8.39981C8.71807 21.6 9.02329 21.4736 9.24833 21.2485C9.47338 21.0235 9.59981 20.7183 9.59981 20.4V18C9.59981 17.6818 9.72623 17.3765 9.95128 17.1515C10.1763 16.9264 10.4815 16.8 10.7998 16.8H13.1998C13.5181 16.8 13.8233 16.9264 14.0483 17.1515C14.2734 17.3765 14.3998 17.6818 14.3998 18V20.4C14.3998 20.7183 14.5262 21.0235 14.7513 21.2485C14.9763 21.4736 15.2815 21.6 15.5998 21.6H17.9998C18.3181 21.6 18.6233 21.4736 18.8483 21.2485C19.0734 21.0235 19.1998 20.7183 19.1998 20.4V12.4968L19.5514 12.8484C19.7777 13.067 20.0809 13.188 20.3955 13.1852C20.7101 13.1825 21.0111 13.0563 21.2336 12.8338C21.4561 12.6113 21.5823 12.3103 21.585 11.9957C21.5878 11.6811 21.4668 11.3779 21.2482 11.1516L12.8482 2.75161Z" fill="#059669"/>
</g>
</svg>
