<svg width="20" height="20" viewBox="0 0 20 20" fill="none" xmlns="http://www.w3.org/2000/svg">
<g opacity="0.6">
<path d="M2.00305 5.884L10.0001 9.882L17.9971 5.884C17.9674 5.37444 17.7441 4.89549 17.3729 4.54523C17.0016 4.19497 16.5105 3.99991 16.0001 4H4.00005C3.48964 3.99991 2.9985 4.19497 2.62723 4.54523C2.25596 4.89549 2.03266 5.37444 2.00305 5.884Z" fill="black"/>
<path d="M18.0001 8.11804L10.0001 12.118L2.00006 8.11804V14C2.00006 14.5305 2.21077 15.0392 2.58585 15.4143C2.96092 15.7893 3.46963 16 4.00006 16H16.0001C16.5305 16 17.0392 15.7893 17.4143 15.4143C17.7893 15.0392 18.0001 14.5305 18.0001 14V8.11804Z" fill="black"/>
</g>
</svg>
