<svg width="33" height="32" viewBox="0 0 33 32" fill="none" xmlns="http://www.w3.org/2000/svg">
<g clip-path="url(#clip0_2_5152)">
<path d="M15.8019 19.7604C15.8701 19.8782 15.968 19.976 16.0859 20.044C16.2038 20.112 16.3374 20.1478 16.4735 20.1479H22.2206C22.4974 20.1479 22.7535 20.0005 22.8926 19.7604C22.9604 19.6424 22.9961 19.5086 22.9961 19.3725C22.9961 19.2364 22.9604 19.1026 22.8926 18.9846L20.0194 14.007C19.9511 13.8894 19.8531 13.7917 19.7352 13.7238C19.6173 13.656 19.4836 13.6202 19.3476 13.6202C19.2115 13.6202 19.0779 13.656 18.96 13.7238C18.8421 13.7917 18.7441 13.8894 18.6758 14.007L15.8015 18.9846C15.7333 19.1025 15.6974 19.2363 15.6975 19.3725C15.6976 19.5087 15.7336 19.6425 15.8019 19.7604ZM19.3478 15.9461L20.8773 18.5974H17.8161L19.3478 15.9461Z" fill="#34D399"/>
<path d="M10.2107 30.0779C12.263 30.0779 13.953 28.5012 14.1382 26.496L27.3065 20.9579C27.3715 21.2662 27.44 21.5702 27.498 21.8906L29.0241 21.6156C28.9453 21.1908 28.8578 20.7676 28.7616 20.3464L31.812 19.0629C31.9746 18.9947 32.1091 18.873 32.1932 18.7181C32.2773 18.5631 32.3061 18.3841 32.2747 18.2106C29.1062 0.640191 14.2486 0.146416 14.0984 0.14397C13.9436 0.142238 13.7917 0.186295 13.6619 0.270605C13.5321 0.354914 13.4301 0.475715 13.3687 0.617825L12.0817 3.67761C11.3332 3.56719 10.8736 3.55041 10.8478 3.54937L10.817 5.10023C10.8806 5.10128 11.1116 5.11001 11.4645 5.14566L0.71999 30.6968C0.670692 30.8147 0.651269 30.943 0.663442 31.0702C0.675615 31.1974 0.719009 31.3197 0.789773 31.4261C0.860537 31.5326 0.956481 31.6199 1.06909 31.6804C1.1817 31.7408 1.3075 31.7726 1.43531 31.7727C1.537 31.7727 1.63835 31.7528 1.73514 31.7116L7.72473 29.1938C8.42673 29.7662 9.30492 30.0785 10.2107 30.0779ZM10.2107 28.5274C8.88875 28.5274 7.81349 27.4525 7.81349 26.1312C7.81349 24.8099 8.8884 23.7361 10.2107 23.7361C11.5316 23.7361 12.6062 24.8099 12.6062 26.1312C12.6062 27.4525 11.532 28.5274 10.2107 28.5274ZM14.5858 1.72768C17.1089 1.95762 27.7982 3.76218 30.634 17.8768L28.3811 18.8238C25.409 8.21069 17.7861 4.96639 13.6388 3.98129L14.5858 1.72768ZM6.70538 27.9403L2.88623 29.5464L13.043 5.39761C16.7751 6.17688 24.1265 9.03224 26.9407 19.4308L13.954 24.8907C13.4327 23.3216 11.9531 22.1842 10.2107 22.1842C8.03364 22.1842 6.26262 23.9545 6.26262 26.1309C6.26262 26.7833 6.42512 27.3962 6.70538 27.9403Z" fill="#34D399"/>
<path d="M14.928 13.8155C15.5435 13.815 16.1337 13.5702 16.569 13.135C17.0043 12.6998 17.2491 12.1097 17.2497 11.4941C17.2497 10.2134 16.2084 9.17203 14.928 9.17203C13.6476 9.17203 12.6062 10.2134 12.6062 11.4941C12.607 12.1096 12.8518 12.6997 13.2871 13.1349C13.7224 13.5701 14.3125 13.8149 14.928 13.8155ZM14.928 10.7236C15.3529 10.7236 15.6985 11.0695 15.6985 11.4945C15.6985 11.9187 15.3526 12.2647 14.928 12.2647C14.7238 12.2643 14.5282 12.183 14.3838 12.0387C14.2394 11.8943 14.1582 11.6986 14.1578 11.4945C14.1578 11.0692 14.5034 10.7236 14.928 10.7236ZM10.317 18.6537C11.019 18.6537 11.59 18.0827 11.59 17.3806C11.59 16.6786 11.019 16.1072 10.317 16.1072C9.6153 16.1072 9.04395 16.6786 9.04395 17.3806C9.04395 18.0827 9.6153 18.6537 10.317 18.6537ZM10.317 17.1032C10.3906 17.1032 10.4612 17.1324 10.5133 17.1845C10.5654 17.2365 10.5946 17.3072 10.5946 17.3808C10.5946 17.4544 10.5654 17.525 10.5133 17.5771C10.4612 17.6292 10.3906 17.6584 10.317 17.6584C10.2463 17.6541 10.1799 17.6229 10.1314 17.5714C10.0829 17.5198 10.0559 17.4516 10.0559 17.3808C10.0559 17.31 10.0829 17.2418 10.1314 17.1902C10.1799 17.1386 10.2463 17.1075 10.317 17.1032Z" fill="#34D399"/>
</g>
<defs>
<clipPath id="clip0_2_5152">
<rect width="31.8" height="31.8" fill="white" transform="translate(0.600098)"/>
</clipPath>
</defs>
</svg>
