<svg width="33" height="32" viewBox="0 0 33 32" fill="none" xmlns="http://www.w3.org/2000/svg">
<g clip-path="url(#clip0_2_5056)">
<path d="M15.8018 19.7604C15.8699 19.8782 15.9679 19.976 16.0858 20.044C16.2036 20.112 16.3373 20.1478 16.4734 20.1479H22.2205C22.4972 20.1479 22.7534 20.0005 22.8925 19.7604C22.9603 19.6424 22.996 19.5086 22.996 19.3725C22.996 19.2364 22.9603 19.1026 22.8925 18.9846L20.0193 14.007C19.951 13.8894 19.853 13.7917 19.7351 13.7238C19.6172 13.656 19.4835 13.6202 19.3475 13.6202C19.2114 13.6202 19.0778 13.656 18.9599 13.7238C18.842 13.7917 18.744 13.8894 18.6757 14.007L15.8014 18.9846C15.7332 19.1025 15.6973 19.2363 15.6974 19.3725C15.6974 19.5087 15.7335 19.6425 15.8018 19.7604ZM19.3476 15.9461L20.8772 18.5974H17.816L19.3476 15.9461Z" fill="#34D399"/>
<path d="M10.2106 30.0779C12.2629 30.0779 13.9529 28.5012 14.1381 26.496L27.3064 20.9579C27.3714 21.2662 27.4399 21.5702 27.4979 21.8906L29.024 21.6156C28.9451 21.1908 28.8576 20.7676 28.7615 20.3464L31.8119 19.0629C31.9745 18.9947 32.1089 18.873 32.1931 18.7181C32.2772 18.5631 32.3059 18.3841 32.2746 18.2106C29.1061 0.640191 14.2485 0.146416 14.0982 0.14397C13.9434 0.142238 13.7916 0.186295 13.6618 0.270605C13.532 0.354914 13.43 0.475715 13.3686 0.617825L12.0816 3.67761C11.333 3.56719 10.8735 3.55041 10.8476 3.54937L10.8169 5.10023C10.8805 5.10128 11.1115 5.11001 11.4644 5.14566L0.719867 30.6968C0.67057 30.8147 0.651147 30.943 0.66332 31.0702C0.675493 31.1974 0.718887 31.3197 0.789651 31.4261C0.860415 31.5326 0.956359 31.6199 1.06897 31.6804C1.18158 31.7408 1.30738 31.7726 1.43519 31.7727C1.53688 31.7727 1.63822 31.7528 1.73502 31.7116L7.7246 29.1938C8.4266 29.7662 9.3048 30.0785 10.2106 30.0779ZM10.2106 28.5274C8.88862 28.5274 7.81336 27.4525 7.81336 26.1312C7.81336 24.8099 8.88827 23.7361 10.2106 23.7361C11.5315 23.7361 12.6061 24.8099 12.6061 26.1312C12.6061 27.4525 11.5319 28.5274 10.2106 28.5274ZM14.5857 1.72768C17.1087 1.95762 27.7981 3.76218 30.6339 17.8768L28.381 18.8238C25.4089 8.21069 17.786 4.96639 13.6387 3.98129L14.5857 1.72768ZM6.70526 27.9403L2.88611 29.5464L13.0429 5.39761C16.775 6.17688 24.1264 9.03224 26.9405 19.4308L13.9539 24.8907C13.4325 23.3216 11.953 22.1842 10.2106 22.1842C8.03352 22.1842 6.2625 23.9545 6.2625 26.1309C6.2625 26.7833 6.425 27.3962 6.70526 27.9403Z" fill="#34D399"/>
<path d="M14.9277 13.8155C15.5433 13.815 16.1335 13.5702 16.5687 13.135C17.004 12.6998 17.2489 12.1097 17.2495 11.4941C17.2495 10.2134 16.2081 9.17203 14.9277 9.17203C13.6474 9.17203 12.606 10.2134 12.606 11.4941C12.6067 12.1096 12.8516 12.6997 13.2869 13.1349C13.7221 13.5701 14.3122 13.8149 14.9277 13.8155ZM14.9277 10.7236C15.3527 10.7236 15.6983 11.0695 15.6983 11.4945C15.6983 11.9187 15.3523 12.2647 14.9277 12.2647C14.7236 12.2643 14.5279 12.183 14.3836 12.0387C14.2392 11.8943 14.1579 11.6986 14.1576 11.4945C14.1576 11.0692 14.5032 10.7236 14.9277 10.7236ZM10.3167 18.6537C11.0188 18.6537 11.5898 18.0827 11.5898 17.3806C11.5898 16.6786 11.0188 16.1072 10.3167 16.1072C9.61505 16.1072 9.0437 16.6786 9.0437 17.3806C9.0437 18.0827 9.61505 18.6537 10.3167 18.6537ZM10.3167 17.1032C10.3904 17.1032 10.461 17.1324 10.5131 17.1845C10.5651 17.2365 10.5944 17.3072 10.5944 17.3808C10.5944 17.4544 10.5651 17.525 10.5131 17.5771C10.461 17.6292 10.3904 17.6584 10.3167 17.6584C10.2461 17.6541 10.1797 17.6229 10.1312 17.5714C10.0827 17.5198 10.0557 17.4516 10.0557 17.3808C10.0557 17.31 10.0827 17.2418 10.1312 17.1902C10.1797 17.1386 10.2461 17.1075 10.3167 17.1032Z" fill="#34D399"/>
</g>
<defs>
<clipPath id="clip0_2_5056">
<rect width="31.8" height="31.8" fill="white" transform="translate(0.599976)"/>
</clipPath>
</defs>
</svg>
