<svg width="33" height="32" viewBox="0 0 33 32" fill="none" xmlns="http://www.w3.org/2000/svg">
<g clip-path="url(#clip0_2_5248)">
<path d="M15.8021 19.7604C15.8703 19.8782 15.9682 19.976 16.0861 20.044C16.204 20.112 16.3377 20.1478 16.4738 20.1479H22.2208C22.4976 20.1479 22.7538 20.0005 22.8928 19.7604C22.9607 19.6424 22.9963 19.5086 22.9963 19.3725C22.9963 19.2364 22.9607 19.1026 22.8928 18.9846L20.0197 14.007C19.9513 13.8894 19.8533 13.7917 19.7354 13.7238C19.6175 13.656 19.4839 13.6202 19.3478 13.6202C19.2118 13.6202 19.0781 13.656 18.9602 13.7238C18.8423 13.7917 18.7443 13.8894 18.676 14.007L15.8018 18.9846C15.7336 19.1025 15.6977 19.2363 15.6978 19.3725C15.6978 19.5087 15.7338 19.6425 15.8021 19.7604ZM19.348 15.9461L20.8776 18.5974H17.8164L19.348 15.9461Z" fill="#34D399"/>
<path d="M10.2105 30.0779C12.2628 30.0779 13.9527 28.5012 14.1379 26.496L27.3063 20.9579C27.3713 21.2662 27.4398 21.5702 27.4978 21.8906L29.0238 21.6156C28.945 21.1908 28.8575 20.7676 28.7614 20.3464L31.8118 19.0629C31.9744 18.9947 32.1088 18.873 32.1929 18.7181C32.2771 18.5631 32.3058 18.3841 32.2744 18.2106C29.106 0.640191 14.2484 0.146416 14.0981 0.14397C13.9433 0.142238 13.7915 0.186295 13.6617 0.270605C13.5318 0.354914 13.4298 0.475715 13.3685 0.617825L12.0814 3.67761C11.3329 3.56719 10.8734 3.55041 10.8475 3.54937L10.8168 5.10023C10.8804 5.10128 11.1114 5.11001 11.4643 5.14566L0.719745 30.6968C0.670448 30.8147 0.651025 30.943 0.663198 31.0702C0.675371 31.1974 0.718765 31.3197 0.789529 31.4261C0.860293 31.5326 0.956237 31.6199 1.06885 31.6804C1.18146 31.7408 1.30726 31.7726 1.43507 31.7727C1.53676 31.7727 1.6381 31.7528 1.7349 31.7116L7.72448 29.1938C8.42648 29.7662 9.30468 30.0785 10.2105 30.0779ZM10.2105 28.5274C8.8885 28.5274 7.81324 27.4525 7.81324 26.1312C7.81324 24.8099 8.88815 23.7361 10.2105 23.7361C11.5314 23.7361 12.606 24.8099 12.606 26.1312C12.606 27.4525 11.5317 28.5274 10.2105 28.5274ZM14.5856 1.72768C17.1086 1.95762 27.798 3.76218 30.6338 17.8768L28.3809 18.8238C25.4088 8.21069 17.7859 4.96639 13.6386 3.98129L14.5856 1.72768ZM6.70513 27.9403L2.88599 29.5464L13.0428 5.39761C16.7749 6.17688 24.1263 9.03224 26.9404 19.4308L13.9538 24.8907C13.4324 23.3216 11.9528 22.1842 10.2105 22.1842C8.0334 22.1842 6.26238 23.9545 6.26238 26.1309C6.26238 26.7833 6.42488 27.3962 6.70513 27.9403Z" fill="#34D399"/>
<path d="M14.928 13.8155C15.5435 13.815 16.1337 13.5702 16.569 13.135C17.0043 12.6998 17.2491 12.1097 17.2497 11.4941C17.2497 10.2134 16.2084 9.17203 14.928 9.17203C13.6476 9.17203 12.6062 10.2134 12.6062 11.4941C12.607 12.1096 12.8518 12.6997 13.2871 13.1349C13.7224 13.5701 14.3125 13.8149 14.928 13.8155ZM14.928 10.7236C15.3529 10.7236 15.6985 11.0695 15.6985 11.4945C15.6985 11.9187 15.3526 12.2647 14.928 12.2647C14.7238 12.2643 14.5282 12.183 14.3838 12.0387C14.2394 11.8943 14.1582 11.6986 14.1578 11.4945C14.1578 11.0692 14.5034 10.7236 14.928 10.7236ZM10.317 18.6537C11.019 18.6537 11.59 18.0827 11.59 17.3806C11.59 16.6786 11.019 16.1072 10.317 16.1072C9.6153 16.1072 9.04395 16.6786 9.04395 17.3806C9.04395 18.0827 9.6153 18.6537 10.317 18.6537ZM10.317 17.1032C10.3906 17.1032 10.4612 17.1324 10.5133 17.1845C10.5654 17.2365 10.5946 17.3072 10.5946 17.3808C10.5946 17.4544 10.5654 17.525 10.5133 17.5771C10.4612 17.6292 10.3906 17.6584 10.317 17.6584C10.2463 17.6541 10.1799 17.6229 10.1314 17.5714C10.0829 17.5198 10.0559 17.4516 10.0559 17.3808C10.0559 17.31 10.0829 17.2418 10.1314 17.1902C10.1799 17.1386 10.2463 17.1075 10.317 17.1032Z" fill="#34D399"/>
</g>
<defs>
<clipPath id="clip0_2_5248">
<rect width="31.8" height="31.8" fill="white" transform="translate(0.600098)"/>
</clipPath>
</defs>
</svg>
