<svg width="33" height="32" viewBox="0 0 33 32" fill="none" xmlns="http://www.w3.org/2000/svg">
<g clip-path="url(#clip0_2_4960)">
<path d="M15.8018 19.7604C15.87 19.8782 15.9679 19.976 16.0858 20.044C16.2037 20.112 16.3373 20.1478 16.4734 20.1479H22.2205C22.4973 20.1479 22.7534 20.0005 22.8925 19.7604C22.9603 19.6424 22.996 19.5086 22.996 19.3725C22.996 19.2364 22.9603 19.1026 22.8925 18.9846L20.0193 14.007C19.951 13.8894 19.853 13.7917 19.7351 13.7238C19.6172 13.656 19.4835 13.6202 19.3475 13.6202C19.2115 13.6202 19.0778 13.656 18.9599 13.7238C18.842 13.7917 18.744 13.8894 18.6757 14.007L15.8014 18.9846C15.7332 19.1025 15.6974 19.2363 15.6974 19.3725C15.6975 19.5087 15.7335 19.6425 15.8018 19.7604ZM19.3477 15.9461L20.8772 18.5974H17.816L19.3477 15.9461Z" fill="#34D399"/>
<path d="M10.2106 30.0779C12.2629 30.0779 13.9529 28.5012 14.1381 26.496L27.3064 20.9579C27.3714 21.2662 27.4399 21.5702 27.4979 21.8906L29.024 21.6156C28.9451 21.1908 28.8576 20.7676 28.7615 20.3464L31.8119 19.0629C31.9745 18.9947 32.1089 18.873 32.1931 18.7181C32.2772 18.5631 32.3059 18.3841 32.2745 18.2106C29.1061 0.640191 14.2485 0.146416 14.0982 0.14397C13.9434 0.142238 13.7916 0.186295 13.6618 0.270605C13.5319 0.354914 13.4299 0.475715 13.3686 0.617825L12.0815 3.67761C11.333 3.56719 10.8735 3.55041 10.8476 3.54937L10.8169 5.10023C10.8805 5.10128 11.1115 5.11001 11.4644 5.14566L0.71986 30.6968C0.670563 30.8147 0.651139 30.943 0.663312 31.0702C0.675486 31.1974 0.71888 31.3197 0.789643 31.4261C0.860407 31.5326 0.956352 31.6199 1.06896 31.6804C1.18157 31.7408 1.30737 31.7726 1.43519 31.7727C1.53688 31.7727 1.63822 31.7528 1.73501 31.7116L7.7246 29.1938C8.4266 29.7662 9.30479 30.0785 10.2106 30.0779ZM10.2106 28.5274C8.88862 28.5274 7.81336 27.4525 7.81336 26.1312C7.81336 24.8099 8.88827 23.7361 10.2106 23.7361C11.5315 23.7361 12.6061 24.8099 12.6061 26.1312C12.6061 27.4525 11.5319 28.5274 10.2106 28.5274ZM14.5857 1.72768C17.1087 1.95762 27.7981 3.76218 30.6339 17.8768L28.381 18.8238C25.4089 8.21069 17.786 4.96639 13.6387 3.98129L14.5857 1.72768ZM6.70525 27.9403L2.8861 29.5464L13.0429 5.39761C16.775 6.17688 24.1264 9.03224 26.9405 19.4308L13.9539 24.8907C13.4325 23.3216 11.9529 22.1842 10.2106 22.1842C8.03351 22.1842 6.2625 23.9545 6.2625 26.1309C6.2625 26.7833 6.42499 27.3962 6.70525 27.9403Z" fill="#34D399"/>
<path d="M14.9278 13.8155C15.5434 13.815 16.1335 13.5702 16.5688 13.135C17.0041 12.6998 17.2489 12.1097 17.2496 11.4941C17.2496 10.2134 16.2082 9.17203 14.9278 9.17203C13.6474 9.17203 12.6061 10.2134 12.6061 11.4941C12.6068 12.1096 12.8517 12.6997 13.2869 13.1349C13.7222 13.5701 14.3123 13.8149 14.9278 13.8155ZM14.9278 10.7236C15.3527 10.7236 15.6984 11.0695 15.6984 11.4945C15.6984 11.9187 15.3524 12.2647 14.9278 12.2647C14.7237 12.2643 14.528 12.183 14.3836 12.0387C14.2393 11.8943 14.158 11.6986 14.1576 11.4945C14.1576 11.0692 14.5032 10.7236 14.9278 10.7236ZM10.3168 18.6537C11.0189 18.6537 11.5899 18.0827 11.5899 17.3806C11.5899 16.6786 11.0189 16.1072 10.3168 16.1072C9.61512 16.1072 9.04377 16.6786 9.04377 17.3806C9.04377 18.0827 9.61512 18.6537 10.3168 18.6537ZM10.3168 17.1032C10.3905 17.1032 10.4611 17.1324 10.5131 17.1845C10.5652 17.2365 10.5945 17.3072 10.5945 17.3808C10.5945 17.4544 10.5652 17.525 10.5131 17.5771C10.4611 17.6292 10.3905 17.6584 10.3168 17.6584C10.2461 17.6541 10.1798 17.6229 10.1313 17.5714C10.0827 17.5198 10.0557 17.4516 10.0557 17.3808C10.0557 17.31 10.0827 17.2418 10.1313 17.1902C10.1798 17.1386 10.2461 17.1075 10.3168 17.1032Z" fill="#34D399"/>
</g>
<defs>
<clipPath id="clip0_2_4960">
<rect width="31.8" height="31.8" fill="white" transform="translate(0.599998)"/>
</clipPath>
</defs>
</svg>
