<svg width="33" height="32" viewBox="0 0 33 32" fill="none" xmlns="http://www.w3.org/2000/svg">
<path d="M29.8227 7.66132L27.3383 4.1832C27.2924 4.11887 27.2318 4.06642 27.1615 4.03021C27.0913 3.994 27.0134 3.97508 26.9344 3.97501H22.9594C22.8681 3.97509 22.7786 4.00029 22.7008 4.04786C22.6229 4.09542 22.5597 4.16351 22.5179 4.24465C22.4762 4.3258 22.4576 4.41687 22.4642 4.50787C22.4708 4.59887 22.5024 4.6863 22.5554 4.76057L24.3123 7.22059L18.5098 6.95626C18.4186 6.95134 18.3278 6.97199 18.2476 7.01589C18.1675 7.05978 18.1012 7.12517 18.0562 7.20469L16.0687 10.6828C16.0265 10.7567 16.0039 10.8402 16.0032 10.9253C16.0025 11.0104 16.0237 11.0942 16.0647 11.1688C16.0741 11.186 16.0845 11.2026 16.096 11.2184L17.853 13.6785L12.0505 13.4156C11.9592 13.4107 11.8684 13.4314 11.7883 13.4753C11.7081 13.5192 11.6418 13.5845 11.5968 13.6641L9.60931 17.1422C9.5671 17.2161 9.54456 17.2996 9.54386 17.3846C9.54317 17.4697 9.56434 17.5536 9.60534 17.6281C9.6147 17.6454 9.62516 17.6619 9.63664 17.6778L11.3936 20.1379L5.59108 19.875C5.50005 19.8714 5.40974 19.8926 5.32983 19.9364C5.24992 19.9801 5.18342 20.0448 5.13744 20.1234L3.14994 23.6016C3.10772 23.6754 3.08519 23.7589 3.08449 23.844C3.08379 23.9291 3.10496 24.013 3.14596 24.0875C3.15532 24.1047 3.16578 24.1213 3.17727 24.1372L5.66164 27.6153C5.7074 27.6799 5.76793 27.7327 5.8382 27.7691C5.90847 27.8056 5.98643 27.8248 6.0656 27.825H10.0406C10.1318 27.8249 10.2213 27.7997 10.2992 27.7522C10.377 27.7046 10.4403 27.6365 10.482 27.5554C10.5238 27.4742 10.5423 27.3831 10.5357 27.2921C10.5291 27.2011 10.4976 27.1137 10.4446 27.0394L8.68761 24.5794L14.4901 24.8438H14.5125C14.5999 24.8439 14.6857 24.821 14.7615 24.7774C14.8372 24.7338 14.9001 24.671 14.9438 24.5953L16.9313 21.1172C16.9735 21.0433 16.996 20.9598 16.9967 20.8747C16.9974 20.7897 16.9762 20.7058 16.9352 20.6312C16.9259 20.614 16.9154 20.5974 16.9039 20.5816L15.147 18.1215L20.9495 18.3844H20.9719C21.0592 18.3846 21.1451 18.3617 21.2208 18.3181C21.2966 18.2744 21.3594 18.2116 21.4031 18.1359L23.3906 14.6578C23.4329 14.5839 23.4554 14.5005 23.4561 14.4154C23.4568 14.3303 23.4356 14.2464 23.3946 14.1719C23.3853 14.1547 23.3748 14.1381 23.3633 14.1222L21.6064 11.6622L27.4089 11.925H27.4312C27.5186 11.9252 27.6045 11.9023 27.6802 11.8587C27.7559 11.8151 27.8188 11.7522 27.8625 11.6766L29.85 8.19844C29.8922 8.12456 29.9148 8.04108 29.9155 7.95599C29.9162 7.8709 29.895 7.78706 29.854 7.7125C29.8447 7.69477 29.8342 7.67768 29.8227 7.66132ZM23.9248 4.96876H26.6785L28.4205 7.40742L25.5739 7.27773L23.9248 4.96876ZM9.07517 26.8313H6.32149L4.57945 24.3926L7.42604 24.5223L9.07517 26.8313ZM14.2317 23.8366L4.41598 23.3894L5.84946 20.8812L15.6652 21.3284L14.2317 23.8366ZM15.5018 20.3262L12.6552 20.1965L11.0388 17.9332L13.8854 18.0629L15.5018 20.3262ZM20.6911 17.3772L10.8754 16.93L12.3088 14.4218L22.1246 14.869L20.6911 17.3772ZM21.9611 13.8668L19.1145 13.7371L17.4982 11.4738L20.3448 11.6035L21.9611 13.8668ZM27.1505 10.9178L17.3347 10.4707L18.7682 7.96243L28.584 8.40961L27.1505 10.9178Z" fill="#34D399"/>
</svg>
