<svg width="20" height="21" viewBox="0 0 20 21" fill="none" xmlns="http://www.w3.org/2000/svg">
<path d="M4 12.4C4 9.1 6.7 6.4 10 6.4C13.3 6.4 16 9.1 16 12.4" stroke="black" stroke-miterlimit="10"/>
<path d="M10 6.4C9.7 6.4 9.5 6.2 9.5 5.9C9.5 5.6 9.7 5.4 10 5.4C10.3 5.4 10.5 5.6 10.5 5.9C10.5 6.2 10.3 6.4 10 6.4C10.5 6.4 10.9 6.5 11.3 6.6C11.4 6.4 11.5 6.2 11.5 5.9C11.5 5.1 10.8 4.4 10 4.4C9.2 4.4 8.5 5.1 8.5 5.9C8.5 6.1 8.6 6.4 8.7 6.6C9.1 6.5 9.5 6.4 10 6.4Z" fill="black"/>
<path d="M5.7998 11.9H5.6998C5.3998 11.8 5.2998 11.6 5.2998 11.3C5.7998 9.5 7.0998 8.1 8.8998 7.7C9.1998 7.6 9.3998 7.8 9.4998 8C9.5998 8.3 9.3998 8.5 9.1998 8.6C7.6998 9 6.5998 10.1 6.1998 11.5C6.1998 11.7 5.9998 11.9 5.7998 11.9Z" fill="black"/>
<path d="M17.4 13.2H2.6C2.3 13.2 2 13 2 12.7C2 12.4 2.3 12.2 2.6 12.2H17.5C17.8 12.2 18.1 12.4 18.1 12.7C18.1 13 17.7 13.2 17.4 13.2Z" fill="black"/>
</svg>
