<svg width="20" height="21" viewBox="0 0 20 21" fill="none" xmlns="http://www.w3.org/2000/svg">
<path d="M4 12.4C4 9.1 6.7 6.4 10 6.4C13.3 6.4 16 9.1 16 12.4" stroke="black" stroke-miterlimit="10"/>
<path d="M10 6.4C9.7 6.4 9.5 6.2 9.5 5.9C9.5 5.6 9.7 5.4 10 5.4C10.3 5.4 10.5 5.6 10.5 5.9C10.5 6.2 10.3 6.4 10 6.4C10.5 6.4 10.9 6.5 11.3 6.6C11.4 6.4 11.5 6.2 11.5 5.9C11.5 5.1 10.8 4.4 10 4.4C9.2 4.4 8.5 5.1 8.5 5.9C8.5 6.1 8.6 6.4 8.7 6.6C9.1 6.5 9.5 6.4 10 6.4Z" fill="black"/>
<path d="M5.79999 11.9H5.69999C5.39999 11.8 5.29999 11.6 5.29999 11.3C5.79999 9.5 7.09999 8.1 8.89999 7.7C9.19999 7.6 9.39999 7.8 9.49999 8C9.59999 8.3 9.39999 8.5 9.19999 8.6C7.69999 9 6.59999 10.1 6.19999 11.5C6.19999 11.7 5.99999 11.9 5.79999 11.9Z" fill="black"/>
<path d="M17.4 13.2H2.6C2.3 13.2 2 13 2 12.7C2 12.4 2.3 12.2 2.6 12.2H17.5C17.8 12.2 18.1 12.4 18.1 12.7C18.1 13 17.7 13.2 17.4 13.2Z" fill="black"/>
</svg>
