<svg width="4" height="9" viewBox="0 0 4 9" fill="none" xmlns="http://www.w3.org/2000/svg">
<path d="M2.08375 8.89063C1.98437 8.89063 1.78562 8.79141 1.68625 8.79141C0.692499 7.79922 0.0962486 6.41016 0.0962486 4.92188C0.0962486 3.4336 0.692499 2.04453 1.68625 1.05235C1.885 0.853909 2.18312 0.853909 2.38187 1.05235C4.46875 3.13594 4.46875 6.6086 2.38187 8.79141C2.38187 8.79141 2.18312 8.89063 2.08375 8.89063ZM2.08375 2.04453C1.4875 2.83828 1.09 3.83047 1.09 4.82266C1.09 5.81485 1.38812 6.80703 2.08375 7.60078C3.37562 6.01328 3.37562 3.73125 2.08375 2.04453Z" fill="#10B981"/>
</svg>
