<svg width="13" height="9" viewBox="0 0 13 9" fill="none" xmlns="http://www.w3.org/2000/svg">
<path d="M2.41937 8.44687C2.32 8.44687 2.12125 8.44687 2.02187 8.34765C1.02812 7.35546 0.431873 5.9664 0.431873 4.47812C0.431873 2.98984 1.02812 1.60077 2.02187 0.608587C2.12125 0.509368 2.22062 0.509369 2.41937 0.509369C2.51875 0.509369 2.7175 0.608587 2.81687 0.608587C4.90375 2.69218 4.90375 6.16484 2.81687 8.34765C2.7175 8.44687 2.61812 8.44687 2.41937 8.44687ZM2.41937 1.69999C1.82312 2.49374 1.42562 3.48593 1.42562 4.47812C1.42562 5.47031 1.72375 6.46249 2.41937 7.25624C3.71125 5.56952 3.71125 3.28749 2.41937 1.69999ZM8.77937 7.15702C7.38812 7.15702 5.99687 6.66093 4.90375 5.56953C4.80437 5.47031 4.80437 5.37109 4.80437 5.17265C4.80437 4.97421 4.90375 4.87499 4.90375 4.77577C5.8975 3.78359 7.28875 3.18827 8.77937 3.18827C10.27 3.18827 11.6612 3.78359 12.655 4.77577C12.8537 4.97421 12.8537 5.27187 12.655 5.47031C11.5619 6.56171 10.1706 7.15702 8.77937 7.15702ZM5.99687 5.17265C7.58687 6.46249 9.8725 6.46249 11.5619 5.17265C9.97187 3.88281 7.58687 3.88281 5.99687 5.17265Z" fill="#10B981"/>
</svg>
