<svg width="13" height="9" viewBox="0 0 13 9" fill="none" xmlns="http://www.w3.org/2000/svg">
<path d="M2.41938 8.44687C2.32001 8.44687 2.12126 8.44687 2.02189 8.34765C1.02814 7.35546 0.431885 5.9664 0.431885 4.47812C0.431885 2.98984 1.02814 1.60077 2.02189 0.608587C2.12126 0.509368 2.22063 0.509369 2.41938 0.509369C2.51876 0.509369 2.71751 0.608587 2.81689 0.608587C4.90376 2.69218 4.90376 6.16484 2.81689 8.34765C2.71751 8.44687 2.61813 8.44687 2.41938 8.44687ZM2.41938 1.69999C1.82313 2.49374 1.42563 3.48593 1.42563 4.47812C1.42563 5.47031 1.72376 6.46249 2.41938 7.25624C3.71126 5.56952 3.71126 3.28749 2.41938 1.69999ZM8.77938 7.15702C7.38813 7.15702 5.99688 6.66093 4.90376 5.56953C4.80438 5.47031 4.80439 5.37109 4.80439 5.17265C4.80439 4.97421 4.90376 4.87499 4.90376 4.77577C5.89751 3.78359 7.28876 3.18827 8.77938 3.18827C10.27 3.18827 11.6613 3.78359 12.655 4.77577C12.8538 4.97421 12.8538 5.27187 12.655 5.47031C11.5619 6.56171 10.1706 7.15702 8.77938 7.15702ZM5.99689 5.17265C7.58689 6.46249 9.87251 6.46249 11.5619 5.17265C9.97189 3.88281 7.58689 3.88281 5.99689 5.17265Z" fill="#10B981"/>
</svg>
