<svg width="13" height="9" viewBox="0 0 13 9" fill="none" xmlns="http://www.w3.org/2000/svg">
<path d="M2.63728 8.32422C2.53791 8.32422 2.33915 8.225 2.23978 8.225C1.24603 7.23281 0.64978 5.84375 0.64978 4.35547C0.64978 2.86719 1.24603 1.47813 2.23978 0.485941C2.43853 0.287503 2.73665 0.287503 2.9354 0.485941C5.02228 2.56953 5.02228 6.04219 2.9354 8.225C2.9354 8.225 2.73666 8.32422 2.63728 8.32422ZM2.63728 1.47813C2.04103 2.27188 1.64353 3.26406 1.64353 4.25625C1.64353 5.24844 1.94166 6.24063 2.63728 7.03438C3.92916 5.44688 3.92916 3.16485 2.63728 1.47813ZM8.99728 6.93516C7.50666 6.93516 6.11541 6.33985 5.12166 5.34766C4.92291 5.14922 4.92291 4.85156 5.12166 4.65313C7.20853 2.56953 10.6867 2.56953 12.8729 4.65313C12.9723 4.75235 12.9723 4.85157 12.9723 5.05C12.9723 5.24844 12.8729 5.34766 12.8729 5.44688C11.7798 6.33985 10.3885 6.93516 8.99728 6.93516ZM6.21478 4.95078C7.80478 6.24063 10.1898 6.24063 11.7798 4.95078C10.0904 3.66094 7.80478 3.66094 6.21478 4.95078Z" fill="#10B981"/>
</svg>
