<svg width="27" height="26" viewBox="0 0 27 26" fill="none" xmlns="http://www.w3.org/2000/svg">
<path d="M21.35 7.65C21.25 7.65 21.05 7.65 20.95 7.55C20.75 7.35 20.75 7.05 20.95 6.85L25.55 2.15C25.75 1.95 26.05 1.95 26.25 2.15C26.45 2.35 26.45 2.65 26.25 2.85L21.65 7.45C21.55 7.65 21.45 7.65 21.35 7.65ZM19.15 5.55C19.05 5.55 18.85 5.55 18.75 5.45C18.55 5.25 18.55 4.95 18.75 4.75L23.35 0.15C23.55 -0.05 23.85 -0.05 24.05 0.15C24.25 0.35 24.25 0.65 24.05 0.85L19.55 5.45C19.45 5.55 19.35 5.55 19.15 5.55ZM22.45 10.15C22.35 10.15 22.15 10.15 22.05 10.05C21.85 9.85 21.85 9.55 22.05 9.35L25.55 5.85C25.75 5.65 26.05 5.65 26.25 5.85C26.45 6.05 26.45 6.35 26.25 6.55L22.75 10.05C22.65 10.05 22.55 10.15 22.45 10.15ZM16.75 4.45C16.65 4.45 16.45 4.45 16.35 4.35C16.15 4.15 16.15 3.85 16.35 3.65L19.85 0.15C20.05 -0.05 20.35 -0.05 20.55 0.15C20.75 0.35 20.75 0.65 20.55 0.85L17.05 4.35C17.05 4.45 16.85 4.45 16.75 4.45ZM2.14998 25.75C1.74998 25.75 1.34998 25.65 1.04998 25.35C0.449976 24.75 0.449976 23.85 1.04998 23.25L6.64998 17.65C6.84998 17.45 7.14998 17.45 7.34998 17.65C7.54998 17.85 7.54998 18.15 7.34998 18.35L1.74998 23.95C1.54998 24.15 1.54998 24.45 1.74998 24.65C1.94998 24.85 2.24998 24.85 2.44998 24.65L8.04998 19.05C8.24998 18.85 8.54998 18.85 8.74998 19.05C8.94998 19.25 8.94998 19.55 8.74998 19.75L3.14998 25.35C2.94998 25.65 2.54998 25.75 2.14998 25.75Z" fill="#10B981"/>
</svg>
