<svg width="4" height="9" viewBox="0 0 4 9" fill="none" xmlns="http://www.w3.org/2000/svg">
<path d="M2.08394 8.89063C1.98456 8.89063 1.78581 8.79141 1.68644 8.79141C0.692686 7.79922 0.0964355 6.41016 0.0964355 4.92188C0.0964355 3.4336 0.692686 2.04453 1.68644 1.05235C1.88519 0.853909 2.18331 0.853909 2.38206 1.05235C4.46893 3.13594 4.46893 6.6086 2.38206 8.79141C2.38206 8.79141 2.18331 8.89063 2.08394 8.89063ZM2.08394 2.04453C1.48769 2.83828 1.09019 3.83047 1.09019 4.82266C1.09019 5.81485 1.38831 6.80703 2.08394 7.60078C3.37581 6.01328 3.37581 3.73125 2.08394 2.04453Z" fill="#10B981"/>
</svg>
