<svg width="13" height="9" viewBox="0 0 13 9" fill="none" xmlns="http://www.w3.org/2000/svg">
<path d="M2.30091 8.66875C2.20154 8.66875 2.00279 8.56953 1.90341 8.56953C-0.183462 6.48594 -0.183462 3.01328 1.90341 0.830469C2.10216 0.632031 2.40029 0.632031 2.59904 0.830469C4.68591 2.91406 4.68591 6.38672 2.59904 8.56953C2.49966 8.56953 2.40029 8.66875 2.30091 8.66875ZM2.30091 1.92188C1.00904 3.50938 1.00904 5.79141 2.30091 7.47813C3.49341 5.79141 3.49341 3.50938 2.30091 1.92188ZM8.56154 7.27969C7.17029 7.27969 5.77904 6.78359 4.68591 5.69219C4.48716 5.49375 4.48716 5.19609 4.68591 4.99766C5.67966 4.00547 7.07091 3.41016 8.56154 3.41016C10.0522 3.41016 11.4434 4.00547 12.4372 4.99766C12.6359 5.19609 12.6359 5.49375 12.4372 5.69219C11.344 6.78359 9.95279 7.27969 8.56154 7.27969ZM5.77904 5.39453C7.36904 6.68438 9.65466 6.68438 11.344 5.39453C9.75404 4.10469 7.36904 4.10469 5.77904 5.39453Z" fill="#10B981"/>
</svg>
