<svg width="4" height="9" viewBox="0 0 4 9" fill="none" xmlns="http://www.w3.org/2000/svg">
<path d="M2.08369 8.89063C1.98432 8.89063 1.78557 8.79141 1.68619 8.79141C0.692442 7.79922 0.0961914 6.41016 0.0961914 4.92188C0.0961914 3.4336 0.692442 2.04453 1.68619 1.05235C1.88494 0.853909 2.18307 0.853909 2.38182 1.05235C4.46869 3.13594 4.46869 6.6086 2.38182 8.79141C2.38182 8.79141 2.18307 8.89063 2.08369 8.89063ZM2.08369 2.04453C1.48744 2.83828 1.08994 3.83047 1.08994 4.82266C1.08994 5.81485 1.38807 6.80703 2.08369 7.60078C3.37557 6.01328 3.37557 3.73125 2.08369 2.04453Z" fill="#10B981"/>
</svg>
