<svg width="27" height="26" viewBox="0 0 27 26" fill="none" xmlns="http://www.w3.org/2000/svg">
<path d="M21.3501 7.65C21.2501 7.65 21.0501 7.65 20.9501 7.55C20.7501 7.35 20.7501 7.05 20.9501 6.85L25.5501 2.15C25.7501 1.95 26.0501 1.95 26.2501 2.15C26.4501 2.35 26.4501 2.65 26.2501 2.85L21.6501 7.45C21.5501 7.65 21.4501 7.65 21.3501 7.65ZM19.1501 5.55C19.0501 5.55 18.8501 5.55 18.7501 5.45C18.5501 5.25 18.5501 4.95 18.7501 4.75L23.3501 0.15C23.5501 -0.05 23.8501 -0.05 24.0501 0.15C24.2501 0.35 24.2501 0.65 24.0501 0.85L19.5501 5.45C19.4501 5.55 19.3501 5.55 19.1501 5.55ZM22.4501 10.15C22.3501 10.15 22.1501 10.15 22.0501 10.05C21.8501 9.85 21.8501 9.55 22.0501 9.35L25.5501 5.85C25.7501 5.65 26.0501 5.65 26.2501 5.85C26.4501 6.05 26.4501 6.35 26.2501 6.55L22.7501 10.05C22.6501 10.05 22.5501 10.15 22.4501 10.15ZM16.7501 4.45C16.6501 4.45 16.4501 4.45 16.3501 4.35C16.1501 4.15 16.1501 3.85 16.3501 3.65L19.8501 0.15C20.0501 -0.05 20.3501 -0.05 20.5501 0.15C20.7501 0.35 20.7501 0.65 20.5501 0.85L17.0501 4.35C17.0501 4.45 16.8501 4.45 16.7501 4.45ZM2.1501 25.75C1.7501 25.75 1.3501 25.65 1.0501 25.35C0.450098 24.75 0.450098 23.85 1.0501 23.25L6.6501 17.65C6.8501 17.45 7.1501 17.45 7.3501 17.65C7.5501 17.85 7.5501 18.15 7.3501 18.35L1.7501 23.95C1.5501 24.15 1.5501 24.45 1.7501 24.65C1.9501 24.85 2.2501 24.85 2.4501 24.65L8.0501 19.05C8.2501 18.85 8.5501 18.85 8.7501 19.05C8.9501 19.25 8.9501 19.55 8.7501 19.75L3.1501 25.35C2.9501 25.65 2.5501 25.75 2.1501 25.75Z" fill="#10B981"/>
</svg>
