<svg width="13" height="9" viewBox="0 0 13 9" fill="none" xmlns="http://www.w3.org/2000/svg">
<path d="M2.6374 8.32422C2.53803 8.32422 2.33928 8.225 2.2399 8.225C1.24615 7.23281 0.649902 5.84375 0.649902 4.35547C0.649902 2.86719 1.24615 1.47813 2.2399 0.485941C2.43865 0.287503 2.73678 0.287503 2.93553 0.485941C5.0224 2.56953 5.0224 6.04219 2.93553 8.225C2.93553 8.225 2.73678 8.32422 2.6374 8.32422ZM2.6374 1.47813C2.04115 2.27188 1.64365 3.26406 1.64365 4.25625C1.64365 5.24844 1.94178 6.24063 2.6374 7.03438C3.92928 5.44688 3.92928 3.16485 2.6374 1.47813ZM8.9974 6.93516C7.50678 6.93516 6.11553 6.33985 5.12178 5.34766C4.92303 5.14922 4.92303 4.85156 5.12178 4.65313C7.20865 2.56953 10.6868 2.56953 12.873 4.65313C12.9724 4.75235 12.9724 4.85157 12.9724 5.05C12.9724 5.24844 12.873 5.34766 12.873 5.44688C11.7799 6.33985 10.3887 6.93516 8.9974 6.93516ZM6.2149 4.95078C7.8049 6.24063 10.1899 6.24063 11.7799 4.95078C10.0905 3.66094 7.8049 3.66094 6.2149 4.95078Z" fill="#10B981"/>
</svg>
