<svg width="13" height="9" viewBox="0 0 13 9" fill="none" xmlns="http://www.w3.org/2000/svg">
<path d="M2.41963 8.44687C2.32025 8.44687 2.1215 8.44687 2.02213 8.34765C1.02838 7.35546 0.432129 5.9664 0.432129 4.47812C0.432129 2.98984 1.02838 1.60077 2.02213 0.608587C2.1215 0.509368 2.22088 0.509369 2.41963 0.509369C2.519 0.509369 2.71775 0.608587 2.81713 0.608587C4.904 2.69218 4.904 6.16484 2.81713 8.34765C2.71775 8.44687 2.61838 8.44687 2.41963 8.44687ZM2.41963 1.69999C1.82338 2.49374 1.42588 3.48593 1.42588 4.47812C1.42588 5.47031 1.724 6.46249 2.41963 7.25624C3.7115 5.56952 3.7115 3.28749 2.41963 1.69999ZM8.77963 7.15702C7.38838 7.15702 5.99713 6.66093 4.904 5.56953C4.80463 5.47031 4.80463 5.37109 4.80463 5.17265C4.80463 4.97421 4.904 4.87499 4.904 4.77577C5.89775 3.78359 7.289 3.18827 8.77963 3.18827C10.2703 3.18827 11.6615 3.78359 12.6553 4.77577C12.854 4.97421 12.854 5.27187 12.6553 5.47031C11.5621 6.56171 10.1709 7.15702 8.77963 7.15702ZM5.99713 5.17265C7.58713 6.46249 9.87275 6.46249 11.5621 5.17265C9.97213 3.88281 7.58713 3.88281 5.99713 5.17265Z" fill="#10B981"/>
</svg>
