<svg width="13" height="9" viewBox="0 0 13 9" fill="none" xmlns="http://www.w3.org/2000/svg">
<path d="M2.30104 8.66875C2.20166 8.66875 2.00291 8.56953 1.90354 8.56953C-0.18334 6.48594 -0.18334 3.01328 1.90354 0.830469C2.10229 0.632031 2.40041 0.632031 2.59916 0.830469C4.68604 2.91406 4.68604 6.38672 2.59916 8.56953C2.49979 8.56953 2.40041 8.66875 2.30104 8.66875ZM2.30104 1.92188C1.00916 3.50938 1.00916 5.79141 2.30104 7.47813C3.49354 5.79141 3.49354 3.50938 2.30104 1.92188ZM8.56166 7.27969C7.17041 7.27969 5.77916 6.78359 4.68604 5.69219C4.48729 5.49375 4.48729 5.19609 4.68604 4.99766C5.67979 4.00547 7.07104 3.41016 8.56166 3.41016C10.0523 3.41016 11.4435 4.00547 12.4373 4.99766C12.636 5.19609 12.636 5.49375 12.4373 5.69219C11.3442 6.78359 9.95291 7.27969 8.56166 7.27969ZM5.77916 5.39453C7.36916 6.68438 9.65479 6.68438 11.3442 5.39453C9.75416 4.10469 7.36916 4.10469 5.77916 5.39453Z" fill="#10B981"/>
</svg>
