<svg width="13" height="9" viewBox="0 0 13 9" fill="none" xmlns="http://www.w3.org/2000/svg">
<path d="M2.30125 8.66875C2.20187 8.66875 2.00312 8.56953 1.90375 8.56953C-0.183126 6.48594 -0.183126 3.01328 1.90375 0.830469C2.1025 0.632031 2.40062 0.632031 2.59937 0.830469C4.68625 2.91406 4.68625 6.38672 2.59937 8.56953C2.5 8.56953 2.40062 8.66875 2.30125 8.66875ZM2.30125 1.92188C1.00937 3.50938 1.00937 5.79141 2.30125 7.47813C3.49375 5.79141 3.49375 3.50938 2.30125 1.92188ZM8.56187 7.27969C7.17062 7.27969 5.77937 6.78359 4.68625 5.69219C4.4875 5.49375 4.4875 5.19609 4.68625 4.99766C5.68 4.00547 7.07125 3.41016 8.56187 3.41016C10.0525 3.41016 11.4437 4.00547 12.4375 4.99766C12.6362 5.19609 12.6362 5.49375 12.4375 5.69219C11.3444 6.78359 9.95312 7.27969 8.56187 7.27969ZM5.77937 5.39453C7.36937 6.68438 9.655 6.68438 11.3444 5.39453C9.75437 4.10469 7.36937 4.10469 5.77937 5.39453Z" fill="#10B981"/>
</svg>
