<svg width="13" height="9" viewBox="0 0 13 9" fill="none" xmlns="http://www.w3.org/2000/svg">
<path d="M2.63687 8.32422C2.5375 8.32422 2.33875 8.225 2.23937 8.225C1.24562 7.23281 0.649374 5.84375 0.649374 4.35547C0.649374 2.86719 1.24562 1.47813 2.23937 0.485941C2.43812 0.287503 2.73625 0.287503 2.935 0.485941C5.02187 2.56953 5.02187 6.04219 2.935 8.225C2.935 8.225 2.73625 8.32422 2.63687 8.32422ZM2.63687 1.47813C2.04062 2.27188 1.64312 3.26406 1.64312 4.25625C1.64312 5.24844 1.94125 6.24063 2.63687 7.03438C3.92875 5.44688 3.92875 3.16485 2.63687 1.47813ZM8.99687 6.93516C7.50625 6.93516 6.115 6.33985 5.12125 5.34766C4.9225 5.14922 4.9225 4.85156 5.12125 4.65313C7.20812 2.56953 10.6862 2.56953 12.8725 4.65313C12.9719 4.75235 12.9719 4.85157 12.9719 5.05C12.9719 5.24844 12.8725 5.34766 12.8725 5.44688C11.7794 6.33985 10.3881 6.93516 8.99687 6.93516ZM6.21437 4.95078C7.80437 6.24063 10.1894 6.24063 11.7794 4.95078C10.09 3.66094 7.80437 3.66094 6.21437 4.95078Z" fill="#10B981"/>
</svg>
